<svg width="73" height="88" viewBox="0 0 73 88" fill="none" xmlns="http://www.w3.org/2000/svg">
<path d="M42.4101 22.8671C42.4101 19.9645 40.3838 18.3622 36.8247 18.3622H30.2781V27.7136H35.7986C40.0591 27.7005 42.4101 25.9668 42.4101 22.8671ZM66.2456 21.186C65.0116 17.1276 64.8297 12.1498 64.9726 8.30155C65.1155 4.29568 62.024 0.618164 57.8674 0.618164H15.1585C10.989 0.618164 7.9105 4.30882 8.05338 8.30155C8.18327 12.1498 8.01441 17.1276 6.78043 21.186C5.53345 25.2575 3.44217 27.8318 0 28.1601V31.9033C3.42918 32.2317 5.53345 34.8059 6.78043 38.8775C8.01441 42.9359 8.19626 47.9137 8.05338 51.7619C7.9105 55.7678 11.002 59.4453 15.1585 59.4453H57.8545C62.024 59.4453 65.1025 55.7547 64.9596 51.7619C64.8297 47.9137 64.9986 42.9359 66.2326 38.8775C67.4795 34.8059 69.5708 32.2317 73 31.9033V28.1601C69.5838 27.8318 67.4795 25.2575 66.2456 21.186ZM38.0847 45.6809H25.3682V14.3826H38.0198C43.6441 14.3826 47.3331 17.4559 47.3331 22.1842C47.3331 25.5071 44.8521 28.4754 41.6827 28.9876V29.1583C45.9952 29.6312 48.8918 32.652 48.8918 36.8154C48.8918 42.3449 44.8262 45.6809 38.0847 45.6809ZM36.7858 31.4042H30.2781V41.7013H37.0715C41.5139 41.7013 43.8649 39.9019 43.8649 36.5134C43.8649 33.1379 41.4489 31.4042 36.7858 31.4042Z" fill="#FF4848"/>
<path d="M5.672 85V76.278H8.15C8.654 76.278 9.088 76.3293 9.452 76.432C9.816 76.5347 10.1147 76.6793 10.348 76.866C10.5907 77.0527 10.768 77.2767 10.88 77.538C10.992 77.7993 11.048 78.084 11.048 78.392C11.048 78.6627 10.9967 78.9287 10.894 79.19C10.8007 79.4513 10.656 79.68 10.46 79.876C10.2733 80.072 10.04 80.2213 9.76 80.324C10.0027 80.408 10.222 80.5247 10.418 80.674C10.6233 80.8233 10.796 81.0007 10.936 81.206C11.0853 81.402 11.1973 81.6167 11.272 81.85C11.356 82.074 11.398 82.3073 11.398 82.55C11.398 82.914 11.3327 83.25 11.202 83.558C11.0713 83.8567 10.8707 84.1133 10.6 84.328C10.3387 84.5427 10.0027 84.7107 9.592 84.832C9.18133 84.944 8.696 85 8.136 85H5.672ZM6.638 84.146H8.304C8.71467 84.146 9.074 84.0947 9.382 83.992C9.69 83.88 9.928 83.7027 10.096 83.46C10.2733 83.2173 10.362 82.8953 10.362 82.494C10.362 82.1487 10.2873 81.8453 10.138 81.584C9.98867 81.3133 9.746 81.1033 9.41 80.954C9.08333 80.7953 8.63533 80.716 8.066 80.716H6.638V84.146ZM6.638 79.89H8.01C8.52333 79.89 8.92933 79.8293 9.228 79.708C9.52667 79.5867 9.74133 79.4233 9.872 79.218C10.0027 79.0033 10.068 78.7653 10.068 78.504C10.068 78.308 10.0307 78.126 9.956 77.958C9.89067 77.79 9.78333 77.6453 9.634 77.524C9.48467 77.3933 9.28867 77.2907 9.046 77.216C8.80333 77.1413 8.50933 77.104 8.164 77.104H6.638V79.89ZM15.5 85.154C14.8373 85.154 14.2727 84.9813 13.806 84.636C13.3393 84.2907 12.9847 83.7867 12.742 83.124C12.4993 82.452 12.378 81.64 12.378 80.688C12.378 79.764 12.4993 78.9707 12.742 78.308C12.9847 77.636 13.3393 77.1227 13.806 76.768C14.2727 76.404 14.8373 76.222 15.5 76.222C16.172 76.222 16.7367 76.404 17.194 76.768C17.6607 77.1227 18.0153 77.636 18.258 78.308C18.5007 78.9707 18.622 79.764 18.622 80.688C18.622 81.64 18.5007 82.452 18.258 83.124C18.0153 83.7867 17.6607 84.2907 17.194 84.636C16.7367 84.9813 16.172 85.154 15.5 85.154ZM15.5 84.3C15.948 84.3 16.326 84.16 16.634 83.88C16.9513 83.6 17.194 83.194 17.362 82.662C17.53 82.1207 17.614 81.4627 17.614 80.688C17.614 79.9507 17.53 79.316 17.362 78.784C17.194 78.2427 16.9513 77.8227 16.634 77.524C16.326 77.2253 15.948 77.076 15.5 77.076C15.0613 77.076 14.6833 77.2253 14.366 77.524C14.0487 77.8227 13.806 78.2427 13.638 78.784C13.47 79.316 13.386 79.9507 13.386 80.688C13.386 81.4627 13.47 82.1207 13.638 82.662C13.806 83.194 14.0487 83.6 14.366 83.88C14.6833 84.16 15.0613 84.3 15.5 84.3ZM22.5 85.154C21.8373 85.154 21.2727 84.9813 20.806 84.636C20.3393 84.2907 19.9847 83.7867 19.742 83.124C19.4993 82.452 19.378 81.64 19.378 80.688C19.378 79.764 19.4993 78.9707 19.742 78.308C19.9847 77.636 20.3393 77.1227 20.806 76.768C21.2727 76.404 21.8373 76.222 22.5 76.222C23.172 76.222 23.7367 76.404 24.194 76.768C24.6607 77.1227 25.0153 77.636 25.258 78.308C25.5007 78.9707 25.622 79.764 25.622 80.688C25.622 81.64 25.5007 82.452 25.258 83.124C25.0153 83.7867 24.6607 84.2907 24.194 84.636C23.7367 84.9813 23.172 85.154 22.5 85.154ZM22.5 84.3C22.948 84.3 23.326 84.16 23.634 83.88C23.9513 83.6 24.194 83.194 24.362 82.662C24.53 82.1207 24.614 81.4627 24.614 80.688C24.614 79.9507 24.53 79.316 24.362 78.784C24.194 78.2427 23.9513 77.8227 23.634 77.524C23.326 77.2253 22.948 77.076 22.5 77.076C22.0613 77.076 21.6833 77.2253 21.366 77.524C21.0487 77.8227 20.806 78.2427 20.638 78.784C20.47 79.316 20.386 79.9507 20.386 80.688C20.386 81.4627 20.47 82.1207 20.638 82.662C20.806 83.194 21.0487 83.6 21.366 83.88C21.6833 84.16 22.0613 84.3 22.5 84.3ZM28.912 85V77.146H26.434V76.264H32.482V77.146H29.906V85H28.912ZM36.458 85.14C35.8887 85.14 35.3753 85.0467 34.918 84.86C34.47 84.6733 34.0733 84.398 33.728 84.034L34.232 83.152L34.288 83.026L34.386 83.082C34.4047 83.1473 34.428 83.222 34.456 83.306C34.484 83.3807 34.5493 83.474 34.652 83.586C34.8947 83.7913 35.1747 83.9547 35.492 84.076C35.8187 84.1973 36.1873 84.258 36.598 84.258C36.8593 84.258 37.0973 84.2207 37.312 84.146C37.536 84.062 37.7273 83.9547 37.886 83.824C38.054 83.684 38.18 83.5253 38.264 83.348C38.3573 83.1613 38.404 82.9653 38.404 82.76C38.404 82.6013 38.3853 82.4567 38.348 82.326C38.32 82.1953 38.2593 82.0787 38.166 81.976C38.082 81.864 37.9653 81.7567 37.816 81.654C37.6667 81.542 37.4753 81.4253 37.242 81.304C37.0087 81.1827 36.7287 81.052 36.402 80.912C35.7953 80.6787 35.3147 80.4267 34.96 80.156C34.6147 79.876 34.3673 79.582 34.218 79.274C34.078 78.966 34.008 78.6487 34.008 78.322C34.008 77.8927 34.1153 77.5193 34.33 77.202C34.5447 76.8753 34.848 76.6233 35.24 76.446C35.6413 76.2593 36.1173 76.166 36.668 76.166C36.9853 76.166 37.2887 76.2127 37.578 76.306C37.8767 76.39 38.152 76.5113 38.404 76.67C38.6653 76.8287 38.894 77.0247 39.09 77.258L38.544 77.986L38.46 78.098L38.376 78.042C38.3667 77.9673 38.348 77.8927 38.32 77.818C38.292 77.7433 38.2267 77.65 38.124 77.538C37.9 77.3233 37.662 77.1787 37.41 77.104C37.158 77.02 36.8593 76.978 36.514 76.978C36.2807 76.978 36.0707 77.0107 35.884 77.076C35.7067 77.1413 35.5527 77.2347 35.422 77.356C35.2913 77.4773 35.1887 77.6173 35.114 77.776C35.0487 77.9253 35.016 78.084 35.016 78.252C35.016 78.4107 35.0347 78.5553 35.072 78.686C35.1093 78.8167 35.1747 78.9427 35.268 79.064C35.3613 79.1853 35.4873 79.3067 35.646 79.428C35.814 79.5493 36.0193 79.6707 36.262 79.792C36.514 79.9133 36.8173 80.044 37.172 80.184C37.6013 80.3613 37.956 80.5387 38.236 80.716C38.5253 80.884 38.7493 81.066 38.908 81.262C39.076 81.4487 39.1927 81.654 39.258 81.878C39.3327 82.102 39.37 82.3493 39.37 82.62C39.37 83.0213 39.2673 83.418 39.062 83.81C38.866 84.1927 38.5533 84.51 38.124 84.762C37.6947 85.014 37.1393 85.14 36.458 85.14ZM42.912 85V77.146H40.434V76.264H46.482V77.146H43.906V85H42.912ZM47.784 85V76.278H50.36C51.0507 76.278 51.606 76.3807 52.026 76.586C52.4553 76.7913 52.768 77.0807 52.964 77.454C53.16 77.8273 53.258 78.266 53.258 78.77C53.258 79.0967 53.1833 79.4233 53.034 79.75C52.894 80.0767 52.6887 80.3613 52.418 80.604C52.1567 80.8467 51.844 81.0147 51.48 81.108L53.496 85H52.404L50.472 81.15H48.778V85H47.784ZM48.778 80.282H50.472C51.0973 80.282 51.55 80.1467 51.83 79.876C52.11 79.596 52.25 79.2273 52.25 78.77C52.25 78.4807 52.1893 78.2193 52.068 77.986C51.9467 77.7433 51.7553 77.552 51.494 77.412C51.2327 77.272 50.892 77.202 50.472 77.202H48.778V80.282ZM58.998 82.452H55.834L56.03 81.696H58.774L58.998 82.452ZM57.486 78.364L55.19 85H54.224L57.444 76.124H57.556L60.776 85H59.768L57.486 78.364ZM61.826 85V76.278H64.626C65.2793 76.278 65.8067 76.39 66.208 76.614C66.6093 76.838 66.9033 77.1367 67.09 77.51C67.286 77.874 67.384 78.2847 67.384 78.742C67.384 79.078 67.3327 79.3907 67.23 79.68C67.1273 79.9693 66.964 80.226 66.74 80.45C66.5253 80.674 66.25 80.8467 65.914 80.968C65.578 81.0893 65.172 81.15 64.696 81.15H62.834V85H61.826ZM62.834 80.282H64.584C65.0133 80.282 65.3587 80.2213 65.62 80.1C65.8813 79.9693 66.0727 79.792 66.194 79.568C66.3153 79.3347 66.376 79.0687 66.376 78.77C66.376 78.4807 66.3153 78.2193 66.194 77.986C66.0727 77.7527 65.8813 77.566 65.62 77.426C65.3587 77.2767 65.018 77.202 64.598 77.202H62.834V80.282Z" fill="#1A1A1A"/>
</svg>
