<svg width="121" height="23" viewBox="0 0 121 23" fill="none" xmlns="http://www.w3.org/2000/svg">
<path d="M77 23H120.5C120.5 23 116.5 21.16 115.164 17.02C113.829 12.88 113.961 8.56378 112.75 5.60256C110.459 -4.76837e-07 104.08 0 104.08 0H77L77 17.02L77 23Z" fill="#FFD371"/>
<path d="M43.5002 23H6.10352e-05C6.10352e-05 23 4.00006 21.16 5.33578 17.02C6.67149 12.88 6.53929 8.56378 7.75006 5.60256C10.0408 -4.76837e-07 16.4203 0 16.4203 0H43.5002L43.5002 17.02L43.5002 23Z" fill="#FFD371"/>
<rect width="35" height="23" transform="matrix(1 0 0 -1 43 23)" fill="#FFD371"/>
<path d="M42.7272 9.74512C42.6862 9.73145 42.6589 9.71094 42.6452 9.68359C42.6315 9.65625 42.6224 9.62435 42.6179 9.58789C42.6179 9.54688 42.6156 9.5013 42.611 9.45117C42.6065 9.40104 42.5928 9.34863 42.57 9.29395C42.4378 8.99316 42.2601 8.75846 42.0368 8.58984C41.8135 8.41667 41.5287 8.33008 41.1823 8.33008C40.9043 8.33008 40.6514 8.40983 40.4235 8.56934C40.2002 8.72428 40.0088 8.94531 39.8493 9.23242C39.6898 9.51953 39.5667 9.86589 39.4802 10.2715C39.3936 10.6771 39.3503 11.126 39.3503 11.6182C39.3503 12.0967 39.3958 12.5387 39.487 12.9443C39.5827 13.3454 39.7149 13.694 39.8835 13.9902C40.0521 14.2865 40.2549 14.5189 40.4919 14.6875C40.7289 14.8516 40.9886 14.9336 41.2712 14.9336C41.6084 14.9336 41.9046 14.8311 42.1598 14.626C42.4151 14.4163 42.6452 14.1315 42.8503 13.7715L44.0397 14.5439C43.7116 15.109 43.3128 15.5352 42.8434 15.8223C42.374 16.1094 41.8636 16.2529 41.3122 16.2529C40.7972 16.2529 40.321 16.1618 39.8835 15.9795C39.446 15.7926 39.0654 15.5101 38.7419 15.1318C38.4229 14.7536 38.1722 14.2796 37.9899 13.71C37.8122 13.1357 37.7233 12.4613 37.7233 11.6865C37.7233 11.1169 37.7712 10.6064 37.8669 10.1553C37.9671 9.69954 38.1016 9.30078 38.2702 8.95898C38.4434 8.61719 38.6439 8.32552 38.8718 8.08398C39.0996 7.84245 39.3412 7.64648 39.5964 7.49609C39.8561 7.34115 40.1227 7.22949 40.3962 7.16113C40.6696 7.08822 40.9362 7.05176 41.196 7.05176C41.5241 7.05176 41.8386 7.09961 42.1393 7.19531C42.4401 7.29102 42.7158 7.42773 42.9665 7.60547C43.2217 7.77865 43.4473 7.98828 43.6432 8.23438C43.8438 8.47591 44.0078 8.74479 44.1354 9.04102L42.7272 9.74512ZM53.3358 14.6807V16H47.7645V7.27734H49.4735C49.4917 7.29557 49.5008 7.31836 49.5008 7.3457C49.5008 7.38216 49.4826 7.42773 49.4461 7.48242C49.4142 7.53255 49.3892 7.62826 49.3709 7.76953V14.6807H53.3358ZM60.0137 16.2529C59.4987 16.2529 59.0384 16.139 58.6328 15.9111C58.2272 15.6787 57.8831 15.3574 57.6006 14.9473C57.3226 14.5326 57.1084 14.0426 56.958 13.4775C56.8122 12.9079 56.7393 12.2881 56.7393 11.6182C56.7393 10.9437 56.8145 10.3262 56.9648 9.76562C57.1198 9.20508 57.3385 8.72428 57.6211 8.32324C57.9082 7.9222 58.2546 7.61003 58.6602 7.38672C59.0658 7.16341 59.5215 7.05176 60.0273 7.05176C60.4648 7.05176 60.8796 7.14518 61.2715 7.33203C61.6634 7.51888 62.0052 7.80143 62.2969 8.17969C62.5931 8.55794 62.8278 9.03418 63.001 9.6084C63.1742 10.1826 63.2607 10.8571 63.2607 11.6318C63.2607 12.1924 63.2174 12.696 63.1309 13.1426C63.0443 13.5892 62.9258 13.9834 62.7754 14.3252C62.625 14.667 62.4473 14.9609 62.2422 15.207C62.0371 15.4486 61.8138 15.6468 61.5723 15.8018C61.3307 15.9567 61.0778 16.0706 60.8135 16.1436C60.5492 16.2165 60.2826 16.2529 60.0137 16.2529ZM58.3594 11.5361C58.3594 12.0693 58.4004 12.541 58.4824 12.9512C58.5645 13.3613 58.6784 13.7054 58.8242 13.9834C58.9746 14.2614 59.1501 14.471 59.3506 14.6123C59.5557 14.7536 59.7812 14.8242 60.0273 14.8242C60.237 14.8242 60.4375 14.7718 60.6289 14.667C60.8249 14.5622 60.9958 14.3844 61.1416 14.1338C61.2874 13.8831 61.4036 13.5527 61.4902 13.1426C61.5814 12.7279 61.627 12.2152 61.627 11.6045C61.627 11.0212 61.5791 10.529 61.4834 10.1279C61.3877 9.72689 61.2646 9.40332 61.1143 9.15723C60.9639 8.90658 60.793 8.72656 60.6016 8.61719C60.4147 8.50781 60.2279 8.45312 60.041 8.45312C59.8177 8.45312 59.6035 8.50326 59.3984 8.60352C59.1979 8.70378 59.0202 8.8724 58.8652 9.10938C58.7103 9.34635 58.5872 9.66309 58.4961 10.0596C58.4049 10.4515 58.3594 10.9437 58.3594 11.5361ZM71.422 9.5332C71.3537 9.52865 71.3035 9.51497 71.2716 9.49219C71.2443 9.4694 71.2215 9.43978 71.2033 9.40332C71.1896 9.36686 71.1782 9.32812 71.1691 9.28711C71.16 9.24154 71.1418 9.19824 71.1144 9.15723C70.9595 8.9248 70.743 8.73112 70.465 8.57617C70.187 8.42122 69.8589 8.34375 69.4806 8.34375C69.3166 8.34375 69.1662 8.37109 69.0295 8.42578C68.8973 8.47591 68.7834 8.54655 68.6877 8.6377C68.5965 8.72428 68.5259 8.82682 68.4757 8.94531C68.4256 9.05924 68.4005 9.18001 68.4005 9.30762C68.4005 9.45801 68.4256 9.60156 68.4757 9.73828C68.5304 9.87044 68.6261 10.0026 68.7629 10.1348C68.9041 10.2624 69.0933 10.3923 69.3302 10.5244C69.5718 10.6566 69.8771 10.7979 70.2463 10.9482C70.6883 11.126 71.0552 11.3128 71.3468 11.5088C71.6431 11.7002 71.8778 11.9053 72.0509 12.124C72.2287 12.3382 72.3517 12.5684 72.4201 12.8145C72.493 13.056 72.5295 13.3158 72.5295 13.5938C72.5295 13.9219 72.4725 14.2454 72.3586 14.5645C72.2492 14.8835 72.0692 15.1683 71.8185 15.4189C71.5724 15.665 71.2534 15.8656 70.8615 16.0205C70.4696 16.1755 69.9933 16.2529 69.4328 16.2529C68.8403 16.2529 68.3003 16.1413 67.8127 15.918C67.325 15.6901 66.8807 15.362 66.4796 14.9336L67.2795 13.5391C67.3341 13.5527 67.3752 13.5732 67.4025 13.6006C67.4344 13.6279 67.4617 13.6598 67.4845 13.6963C67.5073 13.7327 67.5301 13.7738 67.5529 13.8193C67.5757 13.8649 67.6053 13.915 67.6418 13.9697C67.7375 14.0882 67.8468 14.2044 67.9699 14.3184C68.0975 14.4323 68.241 14.5326 68.4005 14.6191C68.5601 14.7057 68.7355 14.7764 68.9269 14.8311C69.1183 14.8812 69.3302 14.9062 69.5627 14.9062C69.991 14.9062 70.326 14.8083 70.5675 14.6123C70.8136 14.4118 70.9367 14.0996 70.9367 13.6758C70.9367 13.5436 70.9093 13.4183 70.8546 13.2998C70.8 13.1768 70.7065 13.0583 70.5744 12.9443C70.4468 12.8258 70.2736 12.7074 70.0548 12.5889C69.8361 12.4658 69.5604 12.3382 69.2277 12.2061C68.7902 12.0283 68.4165 11.8415 68.1066 11.6455C67.7967 11.4495 67.5415 11.2399 67.341 11.0166C67.145 10.7933 67.0015 10.5563 66.9103 10.3057C66.8192 10.055 66.7736 9.78841 66.7736 9.50586C66.7736 9.16406 66.8442 8.84505 66.9855 8.54883C67.1268 8.2526 67.3227 7.99284 67.5734 7.76953C67.8286 7.54622 68.1294 7.37077 68.4757 7.24316C68.8267 7.11556 69.2117 7.05176 69.631 7.05176C70.1597 7.05176 70.6564 7.16341 71.1213 7.38672C71.5861 7.61003 71.9803 7.93359 72.3039 8.35742L71.422 9.5332ZM76.4661 7.27734H82.1468V8.62402H77.9905V10.7773H81.4359V12.1514H77.9905V14.6533H82.1195V16H76.4661V7.27734Z" fill="black"/>
</svg>
