<svg width="121" height="23" viewBox="0 0 121 23" fill="none" xmlns="http://www.w3.org/2000/svg">
<rect x="43" width="35" height="23" fill="#FFD371"/>
<path d="M77 0H120.5C120.5 0 116.5 1.84 115.164 5.98C113.829 10.12 113.961 14.4362 112.75 17.3974C110.459 23 104.08 23 104.08 23H77L77 5.98L77 0Z" fill="#FFD371"/>
<path d="M43.5002 0H6.10352e-05C6.10352e-05 0 4.00006 1.84 5.33578 5.98C6.67149 10.12 6.53929 14.4362 7.75006 17.3974C10.0408 23 16.4203 23 16.4203 23H43.5002L43.5002 5.98L43.5002 0Z" fill="#FFD371"/>
<path d="M42.7272 7.74512C42.6862 7.73145 42.6589 7.71094 42.6452 7.68359C42.6315 7.65625 42.6224 7.62435 42.6179 7.58789C42.6179 7.54688 42.6156 7.5013 42.611 7.45117C42.6065 7.40104 42.5928 7.34863 42.57 7.29395C42.4378 6.99316 42.2601 6.75846 42.0368 6.58984C41.8135 6.41667 41.5287 6.33008 41.1823 6.33008C40.9043 6.33008 40.6514 6.40983 40.4235 6.56934C40.2002 6.72428 40.0088 6.94531 39.8493 7.23242C39.6898 7.51953 39.5667 7.86589 39.4802 8.27148C39.3936 8.67708 39.3503 9.12598 39.3503 9.61816C39.3503 10.0967 39.3958 10.5387 39.487 10.9443C39.5827 11.3454 39.7149 11.694 39.8835 11.9902C40.0521 12.2865 40.2549 12.5189 40.4919 12.6875C40.7289 12.8516 40.9886 12.9336 41.2712 12.9336C41.6084 12.9336 41.9046 12.8311 42.1598 12.626C42.4151 12.4163 42.6452 12.1315 42.8503 11.7715L44.0397 12.5439C43.7116 13.109 43.3128 13.5352 42.8434 13.8223C42.374 14.1094 41.8636 14.2529 41.3122 14.2529C40.7972 14.2529 40.321 14.1618 39.8835 13.9795C39.446 13.7926 39.0654 13.5101 38.7419 13.1318C38.4229 12.7536 38.1722 12.2796 37.9899 11.71C37.8122 11.1357 37.7233 10.4613 37.7233 9.68652C37.7233 9.11686 37.7712 8.60645 37.8669 8.15527C37.9671 7.69954 38.1016 7.30078 38.2702 6.95898C38.4434 6.61719 38.6439 6.32552 38.8718 6.08398C39.0996 5.84245 39.3412 5.64648 39.5964 5.49609C39.8561 5.34115 40.1227 5.22949 40.3962 5.16113C40.6696 5.08822 40.9362 5.05176 41.196 5.05176C41.5241 5.05176 41.8386 5.09961 42.1393 5.19531C42.4401 5.29102 42.7158 5.42773 42.9665 5.60547C43.2217 5.77865 43.4473 5.98828 43.6432 6.23438C43.8438 6.47591 44.0078 6.74479 44.1354 7.04102L42.7272 7.74512ZM53.3358 12.6807V14H47.7645V5.27734H49.4735C49.4917 5.29557 49.5008 5.31836 49.5008 5.3457C49.5008 5.38216 49.4826 5.42773 49.4461 5.48242C49.4142 5.53255 49.3892 5.62826 49.3709 5.76953V12.6807H53.3358ZM60.0137 14.2529C59.4987 14.2529 59.0384 14.139 58.6328 13.9111C58.2272 13.6787 57.8831 13.3574 57.6006 12.9473C57.3226 12.5326 57.1084 12.0426 56.958 11.4775C56.8122 10.9079 56.7393 10.2881 56.7393 9.61816C56.7393 8.94368 56.8145 8.32617 56.9648 7.76562C57.1198 7.20508 57.3385 6.72428 57.6211 6.32324C57.9082 5.9222 58.2546 5.61003 58.6602 5.38672C59.0658 5.16341 59.5215 5.05176 60.0273 5.05176C60.4648 5.05176 60.8796 5.14518 61.2715 5.33203C61.6634 5.51888 62.0052 5.80143 62.2969 6.17969C62.5931 6.55794 62.8278 7.03418 63.001 7.6084C63.1742 8.18262 63.2607 8.8571 63.2607 9.63184C63.2607 10.1924 63.2174 10.696 63.1309 11.1426C63.0443 11.5892 62.9258 11.9834 62.7754 12.3252C62.625 12.667 62.4473 12.9609 62.2422 13.207C62.0371 13.4486 61.8138 13.6468 61.5723 13.8018C61.3307 13.9567 61.0778 14.0706 60.8135 14.1436C60.5492 14.2165 60.2826 14.2529 60.0137 14.2529ZM58.3594 9.53613C58.3594 10.0693 58.4004 10.541 58.4824 10.9512C58.5645 11.3613 58.6784 11.7054 58.8242 11.9834C58.9746 12.2614 59.1501 12.471 59.3506 12.6123C59.5557 12.7536 59.7812 12.8242 60.0273 12.8242C60.237 12.8242 60.4375 12.7718 60.6289 12.667C60.8249 12.5622 60.9958 12.3844 61.1416 12.1338C61.2874 11.8831 61.4036 11.5527 61.4902 11.1426C61.5814 10.7279 61.627 10.2152 61.627 9.60449C61.627 9.02116 61.5791 8.52897 61.4834 8.12793C61.3877 7.72689 61.2646 7.40332 61.1143 7.15723C60.9639 6.90658 60.793 6.72656 60.6016 6.61719C60.4147 6.50781 60.2279 6.45312 60.041 6.45312C59.8177 6.45312 59.6035 6.50326 59.3984 6.60352C59.1979 6.70378 59.0202 6.8724 58.8652 7.10938C58.7103 7.34635 58.5872 7.66309 58.4961 8.05957C58.4049 8.4515 58.3594 8.94368 58.3594 9.53613ZM71.422 7.5332C71.3537 7.52865 71.3035 7.51497 71.2716 7.49219C71.2443 7.4694 71.2215 7.43978 71.2033 7.40332C71.1896 7.36686 71.1782 7.32812 71.1691 7.28711C71.16 7.24154 71.1418 7.19824 71.1144 7.15723C70.9595 6.9248 70.743 6.73112 70.465 6.57617C70.187 6.42122 69.8589 6.34375 69.4806 6.34375C69.3166 6.34375 69.1662 6.37109 69.0295 6.42578C68.8973 6.47591 68.7834 6.54655 68.6877 6.6377C68.5965 6.72428 68.5259 6.82682 68.4757 6.94531C68.4256 7.05924 68.4005 7.18001 68.4005 7.30762C68.4005 7.45801 68.4256 7.60156 68.4757 7.73828C68.5304 7.87044 68.6261 8.0026 68.7629 8.13477C68.9041 8.26237 69.0933 8.39225 69.3302 8.52441C69.5718 8.65658 69.8771 8.79785 70.2463 8.94824C70.6883 9.12598 71.0552 9.31283 71.3468 9.50879C71.6431 9.7002 71.8778 9.90527 72.0509 10.124C72.2287 10.3382 72.3517 10.5684 72.4201 10.8145C72.493 11.056 72.5295 11.3158 72.5295 11.5938C72.5295 11.9219 72.4725 12.2454 72.3586 12.5645C72.2492 12.8835 72.0692 13.1683 71.8185 13.4189C71.5724 13.665 71.2534 13.8656 70.8615 14.0205C70.4696 14.1755 69.9933 14.2529 69.4328 14.2529C68.8403 14.2529 68.3003 14.1413 67.8127 13.918C67.325 13.6901 66.8807 13.362 66.4796 12.9336L67.2795 11.5391C67.3341 11.5527 67.3752 11.5732 67.4025 11.6006C67.4344 11.6279 67.4617 11.6598 67.4845 11.6963C67.5073 11.7327 67.5301 11.7738 67.5529 11.8193C67.5757 11.8649 67.6053 11.915 67.6418 11.9697C67.7375 12.0882 67.8468 12.2044 67.9699 12.3184C68.0975 12.4323 68.241 12.5326 68.4005 12.6191C68.5601 12.7057 68.7355 12.7764 68.9269 12.8311C69.1183 12.8812 69.3302 12.9062 69.5627 12.9062C69.991 12.9062 70.326 12.8083 70.5675 12.6123C70.8136 12.4118 70.9367 12.0996 70.9367 11.6758C70.9367 11.5436 70.9093 11.4183 70.8546 11.2998C70.8 11.1768 70.7065 11.0583 70.5744 10.9443C70.4468 10.8258 70.2736 10.7074 70.0548 10.5889C69.8361 10.4658 69.5604 10.3382 69.2277 10.2061C68.7902 10.0283 68.4165 9.84147 68.1066 9.64551C67.7967 9.44954 67.5415 9.23991 67.341 9.0166C67.145 8.79329 67.0015 8.55632 66.9103 8.30566C66.8192 8.05501 66.7736 7.78841 66.7736 7.50586C66.7736 7.16406 66.8442 6.84505 66.9855 6.54883C67.1268 6.2526 67.3227 5.99284 67.5734 5.76953C67.8286 5.54622 68.1294 5.37077 68.4757 5.24316C68.8267 5.11556 69.2117 5.05176 69.631 5.05176C70.1597 5.05176 70.6564 5.16341 71.1213 5.38672C71.5861 5.61003 71.9803 5.93359 72.3039 6.35742L71.422 7.5332ZM76.4661 5.27734H82.1468V6.62402H77.9905V8.77734H81.4359V10.1514H77.9905V12.6533H82.1195V14H76.4661V5.27734Z" fill="black"/>
</svg>
