<svg width="32" height="34" viewBox="0 0 32 34" fill="none" xmlns="http://www.w3.org/2000/svg">
<path d="M29.7143 0.77417H2.27857C1.02143 0.77417 0 1.82894 0 3.12375V31.0132C0 32.308 1.02143 33.3628 2.27857 33.3628H29.7143C30.9714 33.3628 32 32.308 32 31.0132V3.12375C32 1.82894 30.9714 0.77417 29.7143 0.77417ZM9.67143 28.7073H4.92857V13.1549H9.67857V28.7073H9.67143ZM7.3 11.0309C5.77857 11.0309 4.55 9.77242 4.55 8.23028C4.55 6.68814 5.77857 5.42969 7.3 5.42969C8.81429 5.42969 10.05 6.68814 10.05 8.23028C10.05 9.77969 8.82143 11.0309 7.3 11.0309ZM27.45 28.7073H22.7071V21.1421C22.7071 19.3381 22.6714 17.0176 20.2429 17.0176C17.7714 17.0176 17.3929 18.9816 17.3929 21.0111V28.7073H12.65V13.1549H17.2V15.279H17.2643C17.9 14.057 19.45 12.7694 21.7571 12.7694C26.5571 12.7694 27.45 15.9919 27.45 20.1819V28.7073Z" fill="#FF4848"/>
</svg>
