<svg width="62" height="91" viewBox="0 0 62 91" fill="none" xmlns="http://www.w3.org/2000/svg">
<g clip-path="url(#clip0_1135_15)">
<path d="M28.9697 0.0166844C28.8364 0.0288039 28.4121 0.0712219 28.0303 0.10152C19.2242 0.895343 10.9758 5.64616 5.75152 12.9481C2.84242 17.0081 0.981818 21.6135 0.278788 26.4916C0.030303 28.1944 0 28.6973 0 31.0061C0 33.3148 0.030303 33.8178 0.278788 35.5206C1.96364 47.1613 10.2485 56.9417 21.4848 60.5654C23.497 61.2138 25.6182 61.6561 28.0303 61.9227C28.9697 62.0258 33.0303 62.0258 33.9697 61.9227C38.1333 61.4622 41.6606 60.432 45.1394 58.6566C45.6727 58.3839 45.7758 58.3111 45.703 58.2505C45.6545 58.2142 43.3818 55.1662 40.6545 51.4818L35.697 44.7859L29.4848 35.5933C26.0667 30.5395 23.2545 26.4067 23.2303 26.4067C23.2061 26.4007 23.1818 30.4849 23.1697 35.4721C23.1515 44.2041 23.1455 44.5556 23.0364 44.7616C22.8788 45.0586 22.7576 45.1797 22.503 45.3131C22.3091 45.41 22.1394 45.4282 21.2242 45.4282H20.1758L19.897 45.2525C19.7152 45.1373 19.5818 44.9858 19.4909 44.8101L19.3636 44.5374L19.3758 32.3877L19.3939 20.2319L19.5818 19.9956C19.6788 19.8683 19.8848 19.7047 20.0303 19.6259C20.2788 19.5047 20.3758 19.4926 21.4242 19.4926C22.6606 19.4926 22.8667 19.5411 23.1879 19.8926C23.2788 19.9895 26.6424 25.0554 30.6667 31.1576C34.6909 37.2597 40.1939 45.5918 42.897 49.6821L47.8061 57.1174L48.0545 56.9538C50.2545 55.5237 52.5818 53.4876 54.4242 51.3667C58.3455 46.8643 60.8727 41.3742 61.7212 35.5206C61.9697 33.8178 62 33.3148 62 31.0061C62 28.6973 61.9697 28.1944 61.7212 26.4916C60.0364 14.8509 51.7515 5.07049 40.5151 1.44678C38.5333 0.804447 36.4242 0.362088 34.0606 0.0954607C33.4788 0.0348636 29.4727 -0.0317933 28.9697 0.0166844ZM41.6606 18.7654C41.9515 18.9109 42.1879 19.1896 42.2727 19.4805C42.3212 19.638 42.3333 23.0072 42.3212 30.6001L42.303 41.4954L40.3818 38.5504L38.4545 35.6054V27.6853C38.4545 22.5649 38.4788 19.6865 38.5152 19.5471C38.6121 19.2078 38.8242 18.9412 39.1152 18.7836C39.3636 18.6564 39.4545 18.6443 40.4061 18.6443C41.303 18.6443 41.4606 18.6564 41.6606 18.7654Z" fill="#FF4848"/>
</g>
<path d="M6.7 79.278H7.652L11.32 85.746V79.278H12.244H12.384V79.376C12.328 79.432 12.2907 79.4927 12.272 79.558C12.2627 79.6233 12.258 79.7353 12.258 79.894V88H11.488L7.638 81.14V88H6.7V79.278ZM13.826 88V79.264H19.174V80.132H14.75V83.002H18.404V83.898H14.75V87.132H19.132V88H13.826ZM20.574 88L22.954 83.548L20.616 79.264H21.666L23.5 82.582L25.306 79.264H26.286L24.074 83.534L26.552 88H25.446L23.514 84.542L21.638 88H20.574ZM29.912 88V80.146H27.434V79.264H33.482V80.146H30.906V88H29.912ZM37.332 88.154C37.108 88.154 36.9167 88.0747 36.758 87.916C36.5993 87.7573 36.52 87.5707 36.52 87.356C36.52 87.1413 36.5993 86.9547 36.758 86.796C36.9167 86.6373 37.108 86.558 37.332 86.558C37.5467 86.558 37.7333 86.6373 37.892 86.796C38.0507 86.9547 38.13 87.1413 38.13 87.356C38.13 87.5707 38.0507 87.7573 37.892 87.916C37.7333 88.0747 37.5467 88.154 37.332 88.154ZM43.744 88.154C43.3333 88.154 42.9553 88.0747 42.61 87.916C42.2647 87.748 41.9567 87.5053 41.686 87.188L42.246 86.488L42.344 86.376L42.414 86.432C42.4233 86.516 42.442 86.5907 42.47 86.656C42.5073 86.7213 42.5867 86.8053 42.708 86.908C42.8667 87.0293 43.0253 87.1227 43.184 87.188C43.352 87.2533 43.5387 87.286 43.744 87.286C44.0613 87.286 44.318 87.216 44.514 87.076C44.71 86.936 44.8547 86.7073 44.948 86.39C45.0413 86.0633 45.088 85.6293 45.088 85.088V80.104H43.408V79.278H47.398V80.104H46.054V85.074C46.0727 85.634 46.0213 86.11 45.9 86.502C45.7787 86.894 45.606 87.216 45.382 87.468C45.158 87.7107 44.906 87.888 44.626 88C44.346 88.1027 44.052 88.154 43.744 88.154ZM51.458 88.14C50.8887 88.14 50.3753 88.0467 49.918 87.86C49.47 87.6733 49.0733 87.398 48.728 87.034L49.232 86.152L49.288 86.026L49.386 86.082C49.4047 86.1473 49.428 86.222 49.456 86.306C49.484 86.3807 49.5493 86.474 49.652 86.586C49.8947 86.7913 50.1747 86.9547 50.492 87.076C50.8187 87.1973 51.1873 87.258 51.598 87.258C51.8593 87.258 52.0973 87.2207 52.312 87.146C52.536 87.062 52.7273 86.9547 52.886 86.824C53.054 86.684 53.18 86.5253 53.264 86.348C53.3573 86.1613 53.404 85.9653 53.404 85.76C53.404 85.6013 53.3853 85.4567 53.348 85.326C53.32 85.1953 53.2593 85.0787 53.166 84.976C53.082 84.864 52.9653 84.7567 52.816 84.654C52.6667 84.542 52.4753 84.4253 52.242 84.304C52.0087 84.1827 51.7287 84.052 51.402 83.912C50.7953 83.6787 50.3147 83.4267 49.96 83.156C49.6147 82.876 49.3673 82.582 49.218 82.274C49.078 81.966 49.008 81.6487 49.008 81.322C49.008 80.8927 49.1153 80.5193 49.33 80.202C49.5447 79.8753 49.848 79.6233 50.24 79.446C50.6413 79.2593 51.1173 79.166 51.668 79.166C51.9853 79.166 52.2887 79.2127 52.578 79.306C52.8767 79.39 53.152 79.5113 53.404 79.67C53.6653 79.8287 53.894 80.0247 54.09 80.258L53.544 80.986L53.46 81.098L53.376 81.042C53.3667 80.9673 53.348 80.8927 53.32 80.818C53.292 80.7433 53.2267 80.65 53.124 80.538C52.9 80.3233 52.662 80.1787 52.41 80.104C52.158 80.02 51.8593 79.978 51.514 79.978C51.2807 79.978 51.0707 80.0107 50.884 80.076C50.7067 80.1413 50.5527 80.2347 50.422 80.356C50.2913 80.4773 50.1887 80.6173 50.114 80.776C50.0487 80.9253 50.016 81.084 50.016 81.252C50.016 81.4107 50.0347 81.5553 50.072 81.686C50.1093 81.8167 50.1747 81.9427 50.268 82.064C50.3613 82.1853 50.4873 82.3067 50.646 82.428C50.814 82.5493 51.0193 82.6707 51.262 82.792C51.514 82.9133 51.8173 83.044 52.172 83.184C52.6013 83.3613 52.956 83.5387 53.236 83.716C53.5253 83.884 53.7493 84.066 53.908 84.262C54.076 84.4487 54.1927 84.654 54.258 84.878C54.3327 85.102 54.37 85.3493 54.37 85.62C54.37 86.0213 54.2673 86.418 54.062 86.81C53.866 87.1927 53.5533 87.51 53.124 87.762C52.6947 88.014 52.1393 88.14 51.458 88.14Z" fill="#1A1A1A"/>
<defs>
<clipPath id="clip0_1135_15">
<rect width="62" height="62" fill="white"/>
</clipPath>
</defs>
</svg>
