<svg width="69" height="93" viewBox="0 0 69 93" fill="none" xmlns="http://www.w3.org/2000/svg">
<g clip-path="url(#clip0_1197_7)">
<path d="M60.7982 28.773C62.1874 24.5916 61.7044 20.0146 59.478 16.215C56.1292 10.3868 49.3994 7.38758 42.8306 8.79978C37.1036 2.42878 27.2964 1.90898 20.9254 7.63598C18.9014 9.45298 17.3972 11.7714 16.5508 14.3566C12.236 15.2398 8.51002 17.9446 6.32502 21.7718C2.93942 27.5908 3.70762 34.9324 8.22482 39.9234C6.83102 44.1048 7.30942 48.6818 9.53122 52.4814C12.8846 58.3096 19.619 61.3088 26.1924 59.8966C29.118 63.1902 33.3178 65.0624 37.7246 65.0394C44.459 65.044 50.4298 60.697 52.486 54.2846C56.8008 53.3968 60.5268 50.6966 62.7118 46.8694C66.056 41.0596 65.2832 33.7594 60.7982 28.7776V28.773ZM37.7246 61.019C35.0336 61.019 32.43 60.0806 30.3692 58.3556L30.7326 58.1486L42.9548 51.0922C43.5758 50.7288 43.953 50.0664 43.9576 49.3488V32.1172L49.1234 35.1072C49.174 35.1348 49.2108 35.1808 49.22 35.2406V49.519C49.2062 55.8624 44.068 61.0006 37.7246 61.0144V61.019ZM13.018 50.4666C11.6702 48.139 11.1872 45.4112 11.6518 42.757L12.0152 42.9732L24.2466 50.0296C24.863 50.393 25.6266 50.393 26.243 50.0296L41.1884 41.4138V47.38C41.1884 47.4444 41.1562 47.4996 41.1056 47.5364L28.727 54.6756C23.2254 57.845 16.1966 55.959 13.0226 50.4666H13.018ZM9.79802 23.8464C11.155 21.505 13.2986 19.7156 15.847 18.8002V33.3224C15.8378 34.0354 16.2196 34.6978 16.8406 35.052L31.7124 43.631L26.5466 46.621C26.4914 46.6532 26.4224 46.6532 26.3672 46.621L14.0116 39.4956C8.52382 36.3124 6.63782 29.2928 9.80262 23.7912V23.851L9.79802 23.8464ZM52.2468 33.7088L37.329 25.047L42.4856 22.0708C42.5408 22.0386 42.6098 22.0386 42.665 22.0708L55.0206 29.21C60.5176 32.384 62.4036 39.4128 59.2296 44.9098C57.8956 47.2236 55.7934 49.0038 53.2864 49.9376V35.4154C53.2634 34.7024 52.8678 34.0538 52.2468 33.7088ZM57.3896 25.9762L57.0262 25.76L44.8178 18.6438C44.1968 18.2804 43.4286 18.2804 42.8076 18.6438L27.876 27.2596V21.2934C27.8714 21.2336 27.899 21.1692 27.9496 21.137L40.3052 14.0116C45.8114 10.8376 52.8494 12.7328 56.0188 18.239C57.3574 20.5666 57.845 23.2852 57.3896 25.9302V25.9808V25.9762ZM25.0562 36.5516L19.8904 33.5754C19.8398 33.5432 19.803 33.4926 19.7938 33.4282V19.1866C19.803 12.8294 24.9596 7.68658 31.3168 7.69578C33.9986 7.69578 36.5976 8.63878 38.6584 10.3546L38.295 10.5616L26.0728 17.618C25.4518 17.9814 25.0746 18.6438 25.07 19.3614L25.0562 36.5562V36.5516ZM27.8622 30.5026L34.5184 26.6662L41.1838 30.5026V38.1754L34.5414 42.0118L27.876 38.1754L27.8622 30.5026Z" fill="#FF4848"/>
</g>
<path d="M17.5 90.154C16.8373 90.154 16.2727 89.9813 15.806 89.636C15.3393 89.2907 14.9847 88.7867 14.742 88.124C14.4993 87.452 14.378 86.64 14.378 85.688C14.378 84.764 14.4993 83.9707 14.742 83.308C14.9847 82.636 15.3393 82.1227 15.806 81.768C16.2727 81.404 16.8373 81.222 17.5 81.222C18.172 81.222 18.7367 81.404 19.194 81.768C19.6607 82.1227 20.0153 82.636 20.258 83.308C20.5007 83.9707 20.622 84.764 20.622 85.688C20.622 86.64 20.5007 87.452 20.258 88.124C20.0153 88.7867 19.6607 89.2907 19.194 89.636C18.7367 89.9813 18.172 90.154 17.5 90.154ZM17.5 89.3C17.948 89.3 18.326 89.16 18.634 88.88C18.9513 88.6 19.194 88.194 19.362 87.662C19.53 87.1207 19.614 86.4627 19.614 85.688C19.614 84.9507 19.53 84.316 19.362 83.784C19.194 83.2427 18.9513 82.8227 18.634 82.524C18.326 82.2253 17.948 82.076 17.5 82.076C17.0613 82.076 16.6833 82.2253 16.366 82.524C16.0487 82.8227 15.806 83.2427 15.638 83.784C15.47 84.316 15.386 84.9507 15.386 85.688C15.386 86.4627 15.47 87.1207 15.638 87.662C15.806 88.194 16.0487 88.6 16.366 88.88C16.6833 89.16 17.0613 89.3 17.5 89.3ZM21.826 90V81.278H24.626C25.2793 81.278 25.8067 81.39 26.208 81.614C26.6093 81.838 26.9033 82.1367 27.09 82.51C27.286 82.874 27.384 83.2847 27.384 83.742C27.384 84.078 27.3327 84.3907 27.23 84.68C27.1273 84.9693 26.964 85.226 26.74 85.45C26.5253 85.674 26.25 85.8467 25.914 85.968C25.578 86.0893 25.172 86.15 24.696 86.15H22.834V90H21.826ZM22.834 85.282H24.584C25.0133 85.282 25.3587 85.2213 25.62 85.1C25.8813 84.9693 26.0727 84.792 26.194 84.568C26.3153 84.3347 26.376 84.0687 26.376 83.77C26.376 83.4807 26.3153 83.2193 26.194 82.986C26.0727 82.7527 25.8813 82.566 25.62 82.426C25.3587 82.2767 25.018 82.202 24.598 82.202H22.834V85.282ZM28.826 90V81.264H34.174V82.132H29.75V85.002H33.404V85.898H29.75V89.132H34.132V90H28.826ZM35.7 81.278H36.652L40.32 87.746V81.278H41.244H41.384V81.376C41.328 81.432 41.2907 81.4927 41.272 81.558C41.2627 81.6233 41.258 81.7353 41.258 81.894V90H40.488L36.638 83.14V90H35.7V81.278ZM46.998 87.452H43.834L44.03 86.696H46.774L46.998 87.452ZM45.486 83.364L43.19 90H42.224L45.444 81.124H45.556L48.776 90H47.768L45.486 83.364ZM50.134 90V89.174H51.856V82.104H50.232V81.278H54.558V82.104H52.836V89.188H54.642V90H50.134Z" fill="#1A1A1A"/>
<defs>
<clipPath id="clip0_1197_7">
<rect width="69" height="69" fill="white"/>
</clipPath>
</defs>
</svg>
