<svg width="503" height="398" viewBox="0 0 503 398" fill="none" xmlns="http://www.w3.org/2000/svg">
<g clip-path="url(#clip0_159_409)">
<path d="M494.785 397H10.2152C9.26943 397.004 8.33203 396.857 7.45686 396.567C6.58169 396.277 5.786 395.851 5.11552 395.311C4.44503 394.772 3.91298 394.132 3.54993 393.426C3.18688 392.72 2.99999 391.963 3 391.199V84.8044C2.99942 84.0398 3.18589 83.2827 3.54868 82.5765C3.91148 81.8703 4.44344 81.2291 5.11398 80.6897C5.78452 80.1503 6.5804 79.7233 7.45586 79.4333C8.33131 79.1434 9.26906 78.9961 10.2152 79.0001H494.785C495.731 78.9961 496.669 79.1434 497.544 79.4333C498.42 79.7233 499.216 80.1503 499.886 80.6897C500.557 81.2291 501.089 81.8703 501.451 82.5765C501.814 83.2827 502.001 84.0398 502 84.8044V391.269C501.981 392.801 501.211 394.265 499.858 395.34C498.506 396.414 496.681 397.011 494.785 397Z" fill="#C4C4C4"/>
<path d="M493.785 78H9.21518C8.26943 78.0009 7.33203 77.9657 6.45686 77.8965C5.58169 77.8272 4.786 77.7253 4.11552 77.5965C3.44503 77.4676 2.91298 77.3145 2.54993 77.1458C2.18688 76.9771 1.99999 76.7963 2 76.6136V3.38723C1.99942 3.20449 2.18589 3.02353 2.54868 2.85476C2.91148 2.68599 3.44344 2.53274 4.11398 2.40382C4.78452 2.2749 5.5804 2.17286 6.45586 2.10356C7.33131 2.03426 8.26906 1.99907 9.21518 2.00002H493.785C494.731 1.99907 495.669 2.03426 496.544 2.10356C497.42 2.17286 498.216 2.2749 498.886 2.40382C499.557 2.53274 500.089 2.68599 500.451 2.85476C500.814 3.02353 501.001 3.20449 501 3.38723V76.6303C500.981 76.9966 500.211 77.3464 498.858 77.6032C497.506 77.8599 495.681 78.0026 493.785 78Z" fill="white"/>
<path d="M500.298 26.8547V9.95651C500.3 9.01132 500.116 8.075 499.757 7.20133C499.398 6.32765 498.87 5.53384 498.204 4.86549C497.538 4.19715 496.747 3.66743 495.877 3.30678C495.007 2.94613 494.074 2.76165 493.132 2.76394H9.76883C8.82722 2.76165 7.89443 2.94613 7.02405 3.30678C6.15368 3.66743 5.36286 4.19715 4.69704 4.86549C4.03121 5.53384 3.5035 6.32765 3.14421 7.20133C2.78492 8.075 2.60114 9.01132 2.60341 9.95651V26.8547H500.298Z" fill="#9DDAC6"/>
<path d="M493.712 0.467518H9.27504C7.01661 0.455983 4.84585 1.3442 3.23904 2.93728C1.63223 4.53036 0.720595 6.69819 0.704163 8.96515L0.704163 388.861C0.720595 391.128 1.63223 393.296 3.23904 394.889C4.84585 396.482 7.01661 397.37 9.27504 397.359H493.712C495.959 397.382 498.122 396.51 499.729 394.934C501.335 393.358 502.254 391.207 502.283 388.953V8.96515C502.267 6.69819 501.355 4.53036 499.748 2.93728C498.142 1.3442 495.971 0.455983 493.712 0.467518ZM9.27504 3.06724H493.712C495.284 3.055 496.797 3.66909 497.918 4.77478C499.039 5.88047 499.678 7.38747 499.693 8.96515V26.4648H3.29407V8.96515C3.3098 7.38747 3.94834 5.88047 5.0696 4.77478C6.19087 3.66909 7.70328 3.055 9.27504 3.06724ZM499.693 29.0645V76.7261H3.29407V29.0645H499.693ZM493.712 394.759H9.27504C7.70328 394.771 6.19087 394.157 5.0696 393.051C3.94834 391.946 3.3098 390.439 3.29407 388.861V79.3258H499.693V388.953C499.665 390.518 499.019 392.008 497.898 393.096C496.777 394.185 495.272 394.783 493.712 394.759Z" fill="#1A1A1A"/>
<path d="M443.147 66.3272H127.178C125.919 66.3256 124.713 65.8229 123.822 64.9294C122.932 64.036 122.432 62.8246 122.43 61.561V44.2295C122.432 42.966 122.932 41.7546 123.822 40.8611C124.713 39.9676 125.919 39.465 127.178 39.4634H443.147C444.406 39.465 445.613 39.9676 446.503 40.8611C447.393 41.7546 447.894 42.966 447.895 44.2295V61.561C447.894 62.8246 447.393 64.036 446.503 64.9294C445.613 65.8229 444.406 66.3256 443.147 66.3272ZM127.178 42.0631C126.606 42.0631 126.057 42.2914 125.652 42.6976C125.247 43.1039 125.02 43.655 125.02 44.2295V61.561C125.02 62.1356 125.247 62.6867 125.652 63.0929C126.057 63.4992 126.606 63.7275 127.178 63.7275H443.147C443.719 63.7275 444.268 63.4992 444.673 63.0929C445.078 62.6867 445.305 62.1356 445.305 61.561V44.2295C445.305 43.655 445.078 43.1039 444.673 42.6976C444.268 42.2914 443.719 42.0631 443.147 42.0631H127.178Z" fill="#1A1A1A"/>
<path d="M50.3441 64.594C50.0793 64.5944 49.8209 64.5133 49.6034 64.3616C49.386 64.21 49.2202 63.9951 49.1282 63.7459C49.0362 63.4967 49.0225 63.2252 49.0889 62.9679C49.1554 62.7107 49.2987 62.4801 49.4998 62.3071L60.4404 52.8953L49.5006 43.4834C49.2399 43.2589 49.0786 42.9395 49.0524 42.5957C49.0262 42.2518 49.1371 41.9115 49.3608 41.6497C49.5845 41.388 49.9026 41.2261 50.2452 41.1998C50.5878 41.1735 50.9268 41.2848 51.1875 41.5094L63.2738 51.9083C63.4156 52.0303 63.5295 52.1817 63.6076 52.3521C63.6857 52.5224 63.7261 52.7077 63.7261 52.8953C63.7261 53.0828 63.6857 53.2681 63.6076 53.4385C63.5295 53.6089 63.4156 53.7603 63.2738 53.8823L51.1875 64.2812C50.9526 64.4833 50.6534 64.5942 50.3441 64.594Z" fill="#1A1A1A"/>
<path d="M29.6248 64.5941C29.3157 64.5945 29.0167 64.4835 28.7822 64.2813L16.696 53.8824C16.5541 53.7603 16.4402 53.6089 16.3622 53.4386C16.2841 53.2682 16.2437 53.0829 16.2437 52.8953C16.2437 52.7078 16.2841 52.5225 16.3622 52.3521C16.4402 52.1817 16.5541 52.0303 16.696 51.9083L28.7822 41.5094C28.9113 41.3982 29.061 41.3137 29.2227 41.2605C29.3844 41.2074 29.5549 41.1868 29.7246 41.1998C29.8942 41.2129 30.0596 41.2593 30.2113 41.3365C30.3631 41.4137 30.4982 41.5202 30.609 41.6498C30.7197 41.7794 30.804 41.9297 30.8569 42.092C30.9098 42.2543 30.9304 42.4254 30.9174 42.5957C30.9044 42.766 30.8581 42.932 30.7812 43.0843C30.7043 43.2367 30.5982 43.3723 30.4691 43.4835L19.5285 52.8953L30.4683 62.3072C30.6692 62.4801 30.8126 62.7106 30.8791 62.9678C30.9455 63.225 30.9319 63.4964 30.84 63.7455C30.7481 63.9947 30.5824 64.2096 30.3651 64.3613C30.1479 64.513 29.8895 64.5943 29.6248 64.5941Z" fill="#1A1A1A"/>
<path d="M102.574 51.5955C102.23 51.5955 101.901 51.7324 101.658 51.9762C101.415 52.22 101.279 52.5506 101.279 52.8953C101.292 54.7548 100.713 56.5698 99.6265 58.0758C98.5399 59.5818 97.0025 60.7 95.2383 61.2674C93.4742 61.8348 91.5756 61.8217 89.8194 61.23C88.0632 60.6383 86.5413 59.4989 85.4754 57.9781C84.4095 56.4572 83.8555 54.6343 83.8942 52.7752C83.9328 50.9161 84.562 49.118 85.6901 47.6431C86.8182 46.1681 88.3862 45.0934 90.1654 44.5758C91.9447 44.0581 93.8421 44.1244 95.5812 44.7651L93.0957 45.5962C92.7699 45.7053 92.5007 45.94 92.3472 46.2484C92.1937 46.5569 92.1686 46.9139 92.2773 47.2409C92.3861 47.568 92.6198 47.8383 92.9271 47.9923C93.2344 48.1464 93.5901 48.1716 93.9159 48.0624L99.0957 46.3293C99.2717 46.2704 99.433 46.1742 99.5688 46.0472C99.7045 45.9203 99.8115 45.7655 99.8825 45.5934C99.9535 45.4214 99.9868 45.236 99.9802 45.0499C99.9735 44.8638 99.9272 44.6812 99.8442 44.5147L97.2543 39.3152C97.1006 39.0068 96.8312 38.7723 96.5053 38.6632C96.1794 38.5542 95.8237 38.5795 95.5164 38.7338C95.2092 38.888 94.9755 39.1584 94.8669 39.4855C94.7582 39.8127 94.7835 40.1697 94.9372 40.4782L95.734 42.0779C93.4727 41.4294 91.0656 41.5108 88.8529 42.3106C86.6402 43.1104 84.734 44.5881 83.4037 46.5347C82.0734 48.4814 81.3864 50.7986 81.4397 53.1587C81.4931 55.5187 82.2841 57.8022 83.701 59.6864C85.1179 61.5705 87.0889 62.9599 89.3355 63.6581C91.582 64.3563 93.9903 64.328 96.22 63.5773C98.4496 62.8265 100.388 61.3912 101.76 59.4743C103.133 57.5575 103.871 55.256 103.869 52.8953C103.869 52.5506 103.732 52.22 103.49 51.9762C103.247 51.7324 102.917 51.5955 102.574 51.5955Z" fill="#1A1A1A"/>
<path d="M487.66 62.8081L480.365 55.4864C481.906 53.4724 482.627 50.9451 482.38 48.4175C482.133 45.8899 480.937 43.5513 479.035 41.8761C477.134 40.201 474.668 39.3149 472.139 39.3976C469.611 39.4804 467.208 40.5257 465.419 42.3216C463.63 44.1175 462.588 46.5293 462.506 49.0677C462.423 51.6061 463.306 54.0809 464.975 55.9899C466.644 57.8989 468.974 59.099 471.492 59.3469C474.01 59.5947 476.527 58.8716 478.534 57.3244L485.828 64.6469C486.071 64.8908 486.4 65.0278 486.744 65.0278C487.087 65.0278 487.417 64.8908 487.66 64.6469C487.903 64.4031 488.039 64.0724 488.039 63.7275C488.039 63.3827 487.903 63.0519 487.66 62.8081ZM465.161 49.429C465.161 47.9722 465.592 46.5481 466.398 45.3368C467.204 44.1254 468.35 43.1813 469.691 42.6238C471.032 42.0663 472.508 41.9205 473.931 42.2047C475.354 42.4889 476.662 43.1904 477.688 44.2206C478.714 45.2507 479.413 46.5632 479.696 47.992C479.98 49.4209 479.834 50.9019 479.279 52.2478C478.723 53.5938 477.783 54.7442 476.576 55.5535C475.369 56.3629 473.951 56.7949 472.499 56.7949C470.554 56.7926 468.689 56.0158 467.313 54.635C465.937 53.2541 465.164 51.3819 465.161 49.429Z" fill="#1A1A1A"/>
<circle cx="18" cy="15" r="6.6" stroke="#1A1A1A" stroke-width="2.8"/>
<circle cx="39" cy="15" r="6.6" stroke="#1A1A1A" stroke-width="2.8"/>
<circle cx="60" cy="15" r="6.6" stroke="#1A1A1A" stroke-width="2.8"/>
</g>
<defs>
<clipPath id="clip0_159_409">
<rect width="501.579" height="396.891" fill="white" transform="translate(0.704163 0.467529)"/>
</clipPath>
</defs>
</svg>
