<svg width="503" height="398" viewBox="0 0 503 398" fill="none" xmlns="http://www.w3.org/2000/svg">
<g clip-path="url(#clip0_159_409)">
<path d="M494.785 397H10.2152C9.26943 397.004 8.33203 396.853 7.45686 396.556C6.58169 396.259 5.786 395.822 5.11552 395.269C4.44503 394.716 3.91298 394.059 3.54993 393.336C3.18688 392.612 2.99999 391.837 3 391.053V76.9505C2.99942 76.1666 3.18589 75.3904 3.54868 74.6665C3.91148 73.9426 4.44344 73.2852 5.11398 72.7322C5.78452 72.1792 6.5804 71.7415 7.45586 71.4442C8.33131 71.147 9.26906 70.996 10.2152 71.0001H494.785C495.731 70.996 496.669 71.147 497.544 71.4442C498.42 71.7415 499.216 72.1792 499.886 72.7322C500.557 73.2852 501.089 73.9426 501.451 74.6665C501.814 75.3904 502.001 76.1666 502 76.9505V391.125C501.981 392.696 501.211 394.197 499.858 395.298C498.506 396.399 496.681 397.011 494.785 397Z" fill="#C4C4C4"/>
<path d="M493.785 78H9.21518C8.26943 78.0009 7.33203 77.9657 6.45686 77.8965C5.58169 77.8272 4.786 77.7253 4.11552 77.5965C3.44503 77.4676 2.91298 77.3145 2.54993 77.1458C2.18688 76.9771 1.99999 76.7963 2 76.6136V3.38723C1.99942 3.20449 2.18589 3.02353 2.54868 2.85476C2.91148 2.68599 3.44344 2.53274 4.11398 2.40382C4.78452 2.2749 5.5804 2.17286 6.45586 2.10356C7.33131 2.03426 8.26906 1.99907 9.21518 2.00002H493.785C494.731 1.99907 495.669 2.03426 496.544 2.10356C497.42 2.17286 498.216 2.2749 498.886 2.40382C499.557 2.53274 500.089 2.68599 500.451 2.85476C500.814 3.02353 501.001 3.20449 501 3.38723V76.6303C500.981 76.9966 500.211 77.3464 498.858 77.6032C497.506 77.8599 495.681 78.0026 493.785 78Z" fill="white"/>
<path d="M500.298 26.8547V9.95654C500.3 9.01135 500.116 8.07503 499.757 7.20136C499.398 6.32768 498.87 5.53387 498.204 4.86553C497.538 4.19718 496.747 3.66746 495.877 3.30681C495.007 2.94616 494.074 2.76168 493.132 2.76397H9.76883C8.82722 2.76168 7.89443 2.94616 7.02405 3.30681C6.15368 3.66746 5.36286 4.19718 4.69704 4.86553C4.03121 5.53387 3.5035 6.32768 3.14421 7.20136C2.78492 8.07503 2.60114 9.01135 2.60341 9.95654V26.8547H500.298Z" fill="#9DDAC6"/>
<path d="M493.712 0.467518H9.27504C7.01661 0.455983 4.84585 1.3442 3.23904 2.93728C1.63223 4.53036 0.720595 6.69819 0.704163 8.96515L0.704163 388.861C0.720595 391.128 1.63223 393.296 3.23904 394.889C4.84585 396.482 7.01661 397.37 9.27504 397.359H493.712C495.959 397.382 498.122 396.51 499.729 394.934C501.335 393.358 502.254 391.207 502.283 388.953V8.96515C502.267 6.69819 501.355 4.53036 499.748 2.93728C498.142 1.3442 495.971 0.455983 493.712 0.467518ZM9.27504 3.06724H493.712C495.284 3.055 496.797 3.66909 497.918 4.77478C499.039 5.88047 499.678 7.38747 499.693 8.96515V26.4648H3.29407V8.96515C3.3098 7.38747 3.94834 5.88047 5.0696 4.77478C6.19087 3.66909 7.70328 3.055 9.27504 3.06724ZM499.693 29.0645V76.7261H3.29407V29.0645H499.693ZM493.712 394.759H9.27504C7.70328 394.771 6.19087 394.157 5.0696 393.051C3.94834 391.946 3.3098 390.439 3.29407 388.861V79.3258H499.693V388.953C499.665 390.518 499.019 392.008 497.898 393.096C496.777 394.185 495.272 394.783 493.712 394.759Z" fill="#1A1A1A"/>
<path d="M443.147 66.3272H127.178C125.919 66.3256 124.713 65.823 123.822 64.9295C122.932 64.036 122.432 62.8246 122.43 61.5611V44.2296C122.432 42.966 122.932 41.7546 123.822 40.8612C124.713 39.9677 125.919 39.465 127.178 39.4634H443.147C444.406 39.465 445.613 39.9677 446.503 40.8612C447.393 41.7546 447.894 42.966 447.895 44.2296V61.5611C447.894 62.8246 447.393 64.036 446.503 64.9295C445.613 65.823 444.406 66.3256 443.147 66.3272ZM127.178 42.0631C126.606 42.0631 126.057 42.2914 125.652 42.6977C125.247 43.104 125.02 43.655 125.02 44.2296V61.5611C125.02 62.1356 125.247 62.6867 125.652 63.093C126.057 63.4993 126.606 63.7275 127.178 63.7275H443.147C443.719 63.7275 444.268 63.4993 444.673 63.093C445.078 62.6867 445.305 62.1356 445.305 61.5611V44.2296C445.305 43.655 445.078 43.104 444.673 42.6977C444.268 42.2914 443.719 42.0631 443.147 42.0631H127.178Z" fill="#1A1A1A"/>
<path d="M50.3441 64.5941C50.0793 64.5944 49.8209 64.5133 49.6034 64.3616C49.386 64.21 49.2202 63.9951 49.1282 63.7459C49.0362 63.4967 49.0225 63.2252 49.0889 62.968C49.1554 62.7107 49.2987 62.4801 49.4998 62.3072L60.4404 52.8953L49.5006 43.4834C49.2399 43.2589 49.0786 42.9396 49.0524 42.5957C49.0262 42.2518 49.1371 41.9115 49.3608 41.6498C49.5845 41.388 49.9026 41.2261 50.2452 41.1998C50.5878 41.1735 50.9268 41.2848 51.1875 41.5094L63.2738 51.9083C63.4156 52.0303 63.5295 52.1817 63.6076 52.3521C63.6857 52.5225 63.7261 52.7078 63.7261 52.8953C63.7261 53.0828 63.6857 53.2682 63.6076 53.4385C63.5295 53.6089 63.4156 53.7603 63.2738 53.8823L51.1875 64.2812C50.9526 64.4833 50.6534 64.5943 50.3441 64.5941Z" fill="#1A1A1A"/>
<path d="M29.6248 64.5941C29.3157 64.5945 29.0167 64.4835 28.7822 64.2812L16.696 53.8823C16.5541 53.7603 16.4402 53.6089 16.3622 53.4385C16.2841 53.2682 16.2437 53.0828 16.2437 52.8953C16.2437 52.7078 16.2841 52.5225 16.3622 52.3521C16.4402 52.1817 16.5541 52.0303 16.696 51.9083L28.7822 41.5094C28.9113 41.3982 29.061 41.3136 29.2227 41.2605C29.3844 41.2074 29.5549 41.1868 29.7246 41.1998C29.8942 41.2128 30.0596 41.2593 30.2113 41.3365C30.3631 41.4137 30.4982 41.5201 30.609 41.6498C30.7197 41.7794 30.804 41.9296 30.8569 42.0919C30.9098 42.2542 30.9304 42.4254 30.9174 42.5957C30.9044 42.766 30.8581 42.932 30.7812 43.0843C30.7043 43.2366 30.5982 43.3723 30.4691 43.4834L19.5285 52.8953L30.4683 62.3072C30.6692 62.4801 30.8126 62.7106 30.8791 62.9678C30.9455 63.2249 30.9319 63.4964 30.84 63.7455C30.7481 63.9947 30.5824 64.2096 30.3651 64.3613C30.1479 64.513 29.8895 64.5942 29.6248 64.5941Z" fill="#1A1A1A"/>
<path d="M102.574 51.5955C102.23 51.5955 101.901 51.7324 101.658 51.9762C101.415 52.22 101.279 52.5506 101.279 52.8953C101.292 54.7548 100.713 56.5698 99.6265 58.0758C98.5399 59.5818 97.0025 60.7 95.2383 61.2674C93.4742 61.8348 91.5756 61.8217 89.8194 61.23C88.0632 60.6383 86.5413 59.4989 85.4754 57.9781C84.4095 56.4572 83.8555 54.6343 83.8942 52.7752C83.9328 50.9161 84.562 49.118 85.6901 47.6431C86.8182 46.1681 88.3862 45.0934 90.1654 44.5758C91.9447 44.0581 93.8421 44.1244 95.5812 44.7651L93.0957 45.5962C92.7699 45.7053 92.5007 45.94 92.3472 46.2484C92.1937 46.5569 92.1686 46.9139 92.2773 47.2409C92.3861 47.568 92.6198 47.8383 92.9271 47.9923C93.2344 48.1464 93.5901 48.1716 93.9159 48.0624L99.0957 46.3293C99.2717 46.2704 99.433 46.1742 99.5688 46.0472C99.7045 45.9203 99.8115 45.7655 99.8825 45.5934C99.9535 45.4214 99.9868 45.236 99.9802 45.0499C99.9735 44.8638 99.9272 44.6812 99.8442 44.5147L97.2543 39.3152C97.1006 39.0068 96.8312 38.7723 96.5053 38.6632C96.1794 38.5542 95.8237 38.5795 95.5164 38.7338C95.2092 38.888 94.9755 39.1584 94.8669 39.4855C94.7582 39.8127 94.7835 40.1697 94.9372 40.4782L95.734 42.0779C93.4727 41.4294 91.0656 41.5108 88.8529 42.3106C86.6402 43.1104 84.734 44.5881 83.4037 46.5347C82.0734 48.4814 81.3864 50.7986 81.4397 53.1587C81.4931 55.5187 82.2841 57.8022 83.701 59.6864C85.1179 61.5705 87.0889 62.9599 89.3355 63.6581C91.582 64.3563 93.9903 64.328 96.22 63.5773C98.4496 62.8265 100.388 61.3912 101.76 59.4743C103.133 57.5575 103.871 55.256 103.869 52.8953C103.869 52.5506 103.732 52.22 103.49 51.9762C103.247 51.7324 102.917 51.5955 102.574 51.5955Z" fill="#1A1A1A"/>
<path d="M487.66 62.8081L480.365 55.4864C481.906 53.4724 482.627 50.9451 482.38 48.4175C482.133 45.8899 480.937 43.5513 479.035 41.8761C477.134 40.201 474.668 39.3149 472.139 39.3976C469.611 39.4804 467.208 40.5257 465.419 42.3216C463.63 44.1175 462.588 46.5293 462.506 49.0677C462.423 51.6061 463.306 54.0809 464.975 55.9899C466.644 57.8989 468.974 59.099 471.492 59.3469C474.01 59.5947 476.527 58.8716 478.534 57.3244L485.828 64.6469C486.071 64.8908 486.4 65.0278 486.744 65.0278C487.087 65.0278 487.417 64.8908 487.66 64.6469C487.903 64.4031 488.039 64.0724 488.039 63.7275C488.039 63.3827 487.903 63.0519 487.66 62.8081ZM465.161 49.429C465.161 47.9722 465.592 46.5481 466.398 45.3368C467.204 44.1254 468.35 43.1813 469.691 42.6238C471.032 42.0663 472.508 41.9205 473.931 42.2047C475.354 42.4889 476.662 43.1904 477.688 44.2206C478.714 45.2507 479.413 46.5632 479.696 47.992C479.98 49.4209 479.834 50.9019 479.279 52.2478C478.723 53.5938 477.783 54.7442 476.576 55.5535C475.369 56.3629 473.951 56.7949 472.499 56.7949C470.554 56.7926 468.689 56.0158 467.313 54.635C465.937 53.2541 465.164 51.3819 465.161 49.429Z" fill="#1A1A1A"/>
<circle cx="18" cy="15" r="6.6" stroke="#1A1A1A" stroke-width="2.8"/>
<circle cx="39" cy="15" r="6.6" stroke="#1A1A1A" stroke-width="2.8"/>
<circle cx="60" cy="15" r="6.6" stroke="#1A1A1A" stroke-width="2.8"/>
<path d="M138.212 237.168C136.484 237.168 135.02 236.988 133.82 236.628C132.62 236.268 131.696 235.62 131.048 234.684C130.424 233.748 130.136 232.428 130.184 230.724L130.328 227.376C130.328 226.416 130.22 225.684 130.004 225.18C129.788 224.676 129.476 224.34 129.068 224.172C128.66 223.98 128.156 223.884 127.556 223.884H126.512V221.112H127.52C128.168 221.112 128.696 221.004 129.104 220.788C129.536 220.572 129.86 220.224 130.076 219.744C130.292 219.24 130.4 218.58 130.4 217.764L130.328 214.884C130.328 213.468 130.604 212.292 131.156 211.356C131.708 210.42 132.5 209.712 133.532 209.232C134.564 208.752 135.812 208.512 137.276 208.512H139.832V211.32H136.628C135.668 211.32 134.936 211.596 134.432 212.148C133.952 212.676 133.712 213.456 133.712 214.488L133.784 217.332C133.784 218.148 133.676 218.892 133.46 219.564C133.244 220.212 132.92 220.788 132.488 221.292C132.056 221.772 131.528 222.168 130.904 222.48C131.504 222.744 132.008 223.128 132.416 223.632C132.848 224.112 133.172 224.712 133.388 225.432C133.604 226.128 133.712 226.944 133.712 227.88L133.64 230.724C133.64 231.612 133.772 232.332 134.036 232.884C134.324 233.436 134.768 233.82 135.368 234.036C135.968 234.276 136.736 234.396 137.672 234.396H139.796V237.168H138.212ZM171.116 234.396C169.892 234.396 168.752 234.192 167.696 233.784C166.664 233.352 165.764 232.752 164.996 231.984C164.252 231.192 163.664 230.28 163.232 229.248C162.824 228.192 162.62 227.04 162.62 225.792C162.62 224.544 162.824 223.392 163.232 222.336C163.664 221.256 164.252 220.32 164.996 219.528C165.764 218.736 166.664 218.124 167.696 217.692C168.752 217.236 169.88 217.008 171.08 217.008C172.568 217.008 173.864 217.284 174.968 217.836C176.096 218.388 177.008 219.168 177.704 220.176L175.652 222.336L175.4 222.588L175.184 222.372C175.16 222.18 175.112 222 175.04 221.832C174.992 221.64 174.836 221.388 174.572 221.076C174.092 220.644 173.564 220.344 172.988 220.176C172.412 219.984 171.752 219.888 171.008 219.888C170.384 219.888 169.784 220.02 169.208 220.284C168.656 220.548 168.152 220.932 167.696 221.436C167.264 221.94 166.916 222.552 166.652 223.272C166.388 223.992 166.256 224.796 166.256 225.684C166.256 226.548 166.388 227.34 166.652 228.06C166.916 228.756 167.276 229.356 167.732 229.86C168.188 230.34 168.716 230.724 169.316 231.012C169.94 231.276 170.588 231.408 171.26 231.408C171.788 231.408 172.292 231.348 172.772 231.228C173.276 231.084 173.756 230.868 174.212 230.58C174.668 230.268 175.1 229.872 175.508 229.392L177.488 231.696C176.624 232.632 175.628 233.316 174.5 233.748C173.396 234.18 172.268 234.396 171.116 234.396ZM188 234.36C186.488 234.36 185.144 234 183.968 233.28C182.792 232.536 181.856 231.516 181.16 230.22C180.464 228.9 180.116 227.388 180.116 225.684C180.116 224.004 180.464 222.516 181.16 221.22C181.856 219.9 182.792 218.868 183.968 218.124C185.144 217.356 186.488 216.972 188 216.972C189.488 216.972 190.82 217.356 191.996 218.124C193.196 218.868 194.144 219.9 194.84 221.22C195.536 222.516 195.884 224.004 195.884 225.684C195.884 227.364 195.536 228.864 194.84 230.184C194.144 231.48 193.196 232.5 191.996 233.244C190.82 233.988 189.488 234.36 188 234.36ZM188 231.444C188.816 231.444 189.536 231.204 190.16 230.724C190.808 230.22 191.312 229.536 191.672 228.672C192.032 227.808 192.212 226.8 192.212 225.648C192.212 224.472 192.032 223.452 191.672 222.588C191.312 221.724 190.808 221.052 190.16 220.572C189.536 220.092 188.816 219.852 188 219.852C187.184 219.852 186.452 220.092 185.804 220.572C185.18 221.052 184.688 221.724 184.328 222.588C183.968 223.452 183.788 224.472 183.788 225.648C183.788 226.8 183.968 227.808 184.328 228.672C184.688 229.536 185.18 230.22 185.804 230.724C186.452 231.204 187.184 231.444 188 231.444ZM198.188 234V217.332H201.248V218.7C201.512 218.316 201.8 218.004 202.112 217.764C202.448 217.5 202.796 217.296 203.156 217.152C203.54 217.008 203.924 216.936 204.308 216.936C204.74 216.936 205.148 217.02 205.532 217.188C205.916 217.356 206.252 217.596 206.54 217.908C206.828 218.22 207.044 218.628 207.188 219.132C207.428 218.652 207.716 218.256 208.052 217.944C208.412 217.632 208.82 217.392 209.276 217.224C209.756 217.032 210.26 216.936 210.788 216.936C211.364 216.936 211.856 217.056 212.264 217.296C212.696 217.512 213.044 217.824 213.308 218.232C213.596 218.616 213.8 219.096 213.92 219.672C214.064 220.224 214.124 220.848 214.1 221.544V234H210.968V222.48C210.968 221.64 210.92 221.016 210.824 220.608C210.728 220.2 210.584 219.924 210.392 219.78C210.224 219.636 210.02 219.564 209.78 219.564C209.42 219.564 209.072 219.732 208.736 220.068C208.424 220.38 208.16 220.812 207.944 221.364C207.752 221.916 207.656 222.528 207.656 223.2V234H204.632V222.624C204.632 221.376 204.524 220.548 204.308 220.14C204.116 219.732 203.768 219.528 203.264 219.528C203.024 219.528 202.784 219.612 202.544 219.78C202.328 219.924 202.124 220.152 201.932 220.464C201.74 220.752 201.584 221.112 201.464 221.544C201.368 221.976 201.32 222.48 201.32 223.056V234H198.188ZM218.24 234V231.156H222.38V220.176H218.42V217.332H225.98V231.156H229.76V234H218.24ZM223.964 214.344C223.316 214.344 222.764 214.128 222.308 213.696C221.876 213.24 221.66 212.712 221.66 212.112C221.66 211.464 221.876 210.924 222.308 210.492C222.74 210.06 223.292 209.844 223.964 209.844C224.588 209.844 225.128 210.072 225.584 210.528C226.064 210.984 226.304 211.512 226.304 212.112C226.304 212.712 226.064 213.24 225.584 213.696C225.128 214.128 224.588 214.344 223.964 214.344ZM235.16 234V217.332H238.76V219.888C239.168 219.288 239.624 218.772 240.128 218.34C240.632 217.908 241.196 217.572 241.82 217.332C242.444 217.068 243.116 216.936 243.836 216.936C244.772 216.936 245.636 217.176 246.428 217.656C247.22 218.136 247.856 218.892 248.336 219.924C248.816 220.932 249.056 222.276 249.056 223.956V234H245.492V223.992C245.492 223.008 245.384 222.204 245.168 221.58C244.952 220.956 244.64 220.5 244.232 220.212C243.848 219.924 243.38 219.78 242.828 219.78C242.348 219.78 241.868 219.888 241.388 220.104C240.908 220.32 240.464 220.62 240.056 221.004C239.672 221.364 239.36 221.82 239.12 222.372C238.88 222.9 238.76 223.5 238.76 224.172V234H235.16ZM259.676 240.336C258.524 240.336 257.48 240.24 256.544 240.048C255.608 239.856 254.804 239.568 254.132 239.184C253.484 238.824 252.992 238.368 252.656 237.816C252.32 237.288 252.152 236.688 252.152 236.016C252.152 235.392 252.296 234.828 252.584 234.324C252.872 233.82 253.256 233.388 253.736 233.028C254.216 232.644 254.744 232.356 255.32 232.164L256.904 232.884C256.52 233.124 256.184 233.364 255.896 233.604C255.608 233.844 255.38 234.108 255.212 234.396C255.068 234.708 254.996 235.068 254.996 235.476C254.996 235.836 255.116 236.148 255.356 236.412C255.596 236.676 255.932 236.892 256.364 237.06C256.796 237.228 257.312 237.36 257.912 237.456C258.512 237.552 259.184 237.6 259.928 237.6C260.912 237.6 261.728 237.504 262.376 237.312C263.024 237.144 263.504 236.892 263.816 236.556C264.152 236.22 264.32 235.836 264.32 235.404C264.32 234.972 264.224 234.624 264.032 234.36C263.84 234.12 263.48 233.94 262.952 233.82C262.424 233.676 261.656 233.604 260.648 233.604C259.832 233.604 259.052 233.58 258.308 233.532C257.588 233.46 256.916 233.34 256.292 233.172C255.692 233.004 255.164 232.788 254.708 232.524C254.252 232.26 253.892 231.936 253.628 231.552C253.388 231.144 253.268 230.664 253.268 230.112C253.268 229.392 253.484 228.744 253.916 228.168C254.348 227.568 254.888 227.028 255.536 226.548L257.156 227.556C256.94 227.796 256.748 228 256.58 228.168C256.412 228.336 256.28 228.504 256.184 228.672C256.088 228.816 256.04 228.996 256.04 229.212C256.04 229.524 256.22 229.788 256.58 230.004C256.94 230.22 257.516 230.376 258.308 230.472C259.124 230.568 260.204 230.616 261.548 230.616C262.676 230.616 263.612 230.736 264.356 230.976C265.124 231.192 265.724 231.504 266.156 231.912C266.588 232.32 266.888 232.788 267.056 233.316C267.248 233.82 267.344 234.384 267.344 235.008C267.344 235.68 267.2 236.328 266.912 236.952C266.624 237.6 266.168 238.176 265.544 238.68C264.944 239.184 264.152 239.58 263.168 239.868C262.208 240.18 261.044 240.336 259.676 240.336ZM259.208 228.384C258.032 228.384 256.988 228.132 256.076 227.628C255.164 227.1 254.444 226.404 253.916 225.54C253.412 224.676 253.16 223.704 253.16 222.624C253.16 221.544 253.412 220.572 253.916 219.708C254.444 218.82 255.164 218.124 256.076 217.62C256.988 217.092 258.032 216.828 259.208 216.828C260.408 216.828 261.464 217.092 262.376 217.62C263.288 218.124 263.996 218.82 264.5 219.708C265.028 220.572 265.292 221.544 265.292 222.624C265.292 223.704 265.028 224.676 264.5 225.54C263.996 226.404 263.288 227.1 262.376 227.628C261.464 228.132 260.408 228.384 259.208 228.384ZM259.208 225.684C259.808 225.684 260.336 225.552 260.792 225.288C261.248 225.024 261.608 224.664 261.872 224.208C262.136 223.728 262.268 223.2 262.268 222.624C262.268 222.024 262.136 221.508 261.872 221.076C261.608 220.62 261.236 220.26 260.756 219.996C260.3 219.732 259.784 219.6 259.208 219.6C258.656 219.6 258.152 219.732 257.696 219.996C257.24 220.26 256.868 220.62 256.58 221.076C256.316 221.532 256.184 222.048 256.184 222.624C256.184 223.176 256.316 223.692 256.58 224.172C256.844 224.628 257.204 225 257.66 225.288C258.116 225.552 258.632 225.684 259.208 225.684ZM264.284 220.284L262.916 218.592C263.612 218.016 264.368 217.584 265.184 217.296C266.024 216.984 266.948 216.864 267.956 216.936L268.316 219.492C267.572 219.396 266.852 219.408 266.156 219.528C265.46 219.624 264.836 219.876 264.284 220.284ZM277.784 234.396C276.296 234.396 274.916 234.168 273.644 233.712C272.396 233.256 271.328 232.572 270.44 231.66L272.204 228.672L272.384 228.348L272.672 228.528C272.72 228.696 272.78 228.876 272.852 229.068C272.924 229.26 273.104 229.5 273.392 229.788C273.992 230.244 274.676 230.628 275.444 230.94C276.212 231.228 277.052 231.372 277.964 231.372C278.588 231.372 279.14 231.3 279.62 231.156C280.124 230.988 280.556 230.772 280.916 230.508C281.3 230.22 281.588 229.884 281.78 229.5C281.972 229.092 282.068 228.648 282.068 228.168C282.068 227.832 282.032 227.52 281.96 227.232C281.888 226.92 281.756 226.644 281.564 226.404C281.372 226.14 281.096 225.876 280.736 225.612C280.4 225.348 279.956 225.072 279.404 224.784C278.852 224.472 278.192 224.148 277.424 223.812C275.864 223.14 274.628 222.468 273.716 221.796C272.828 221.1 272.192 220.356 271.808 219.564C271.424 218.748 271.232 217.86 271.232 216.9C271.232 215.796 271.532 214.824 272.132 213.984C272.732 213.12 273.56 212.448 274.616 211.968C275.696 211.464 276.92 211.212 278.288 211.212C279.2 211.212 280.052 211.332 280.844 211.572C281.636 211.788 282.38 212.112 283.076 212.544C283.772 212.952 284.396 213.468 284.948 214.092L282.86 216.54L282.644 216.828L282.392 216.612C282.368 216.42 282.32 216.228 282.248 216.036C282.2 215.844 282.044 215.604 281.78 215.316C281.276 214.86 280.736 214.548 280.16 214.38C279.608 214.212 278.948 214.128 278.18 214.128C277.676 214.128 277.208 214.2 276.776 214.344C276.368 214.464 276.008 214.656 275.696 214.92C275.408 215.16 275.18 215.436 275.012 215.748C274.868 216.06 274.796 216.396 274.796 216.756C274.796 217.092 274.832 217.392 274.904 217.656C274.976 217.92 275.108 218.184 275.3 218.448C275.516 218.712 275.804 218.988 276.164 219.276C276.548 219.54 277.028 219.828 277.604 220.14C278.18 220.428 278.888 220.752 279.728 221.112C280.856 221.616 281.792 222.108 282.536 222.588C283.304 223.068 283.904 223.572 284.336 224.1C284.792 224.604 285.116 225.168 285.308 225.792C285.5 226.392 285.596 227.076 285.596 227.844C285.596 228.924 285.32 229.968 284.768 230.976C284.24 231.96 283.4 232.776 282.248 233.424C281.096 234.072 279.608 234.396 277.784 234.396ZM296 234.36C294.488 234.36 293.144 234 291.968 233.28C290.792 232.536 289.856 231.516 289.16 230.22C288.464 228.9 288.116 227.388 288.116 225.684C288.116 224.004 288.464 222.516 289.16 221.22C289.856 219.9 290.792 218.868 291.968 218.124C293.144 217.356 294.488 216.972 296 216.972C297.488 216.972 298.82 217.356 299.996 218.124C301.196 218.868 302.144 219.9 302.84 221.22C303.536 222.516 303.884 224.004 303.884 225.684C303.884 227.364 303.536 228.864 302.84 230.184C302.144 231.48 301.196 232.5 299.996 233.244C298.82 233.988 297.488 234.36 296 234.36ZM296 231.444C296.816 231.444 297.536 231.204 298.16 230.724C298.808 230.22 299.312 229.536 299.672 228.672C300.032 227.808 300.212 226.8 300.212 225.648C300.212 224.472 300.032 223.452 299.672 222.588C299.312 221.724 298.808 221.052 298.16 220.572C297.536 220.092 296.816 219.852 296 219.852C295.184 219.852 294.452 220.092 293.804 220.572C293.18 221.052 292.688 221.724 292.328 222.588C291.968 223.452 291.788 224.472 291.788 225.648C291.788 226.8 291.968 227.808 292.328 228.672C292.688 229.536 293.18 230.22 293.804 230.724C294.452 231.204 295.184 231.444 296 231.444ZM314 234.36C312.488 234.36 311.144 234 309.968 233.28C308.792 232.536 307.856 231.516 307.16 230.22C306.464 228.9 306.116 227.388 306.116 225.684C306.116 224.004 306.464 222.516 307.16 221.22C307.856 219.9 308.792 218.868 309.968 218.124C311.144 217.356 312.488 216.972 314 216.972C315.488 216.972 316.82 217.356 317.996 218.124C319.196 218.868 320.144 219.9 320.84 221.22C321.536 222.516 321.884 224.004 321.884 225.684C321.884 227.364 321.536 228.864 320.84 230.184C320.144 231.48 319.196 232.5 317.996 233.244C316.82 233.988 315.488 234.36 314 234.36ZM314 231.444C314.816 231.444 315.536 231.204 316.16 230.724C316.808 230.22 317.312 229.536 317.672 228.672C318.032 227.808 318.212 226.8 318.212 225.648C318.212 224.472 318.032 223.452 317.672 222.588C317.312 221.724 316.808 221.052 316.16 220.572C315.536 220.092 314.816 219.852 314 219.852C313.184 219.852 312.452 220.092 311.804 220.572C311.18 221.052 310.688 221.724 310.328 222.588C309.968 223.452 309.788 224.472 309.788 225.648C309.788 226.8 309.968 227.808 310.328 228.672C310.688 229.536 311.18 230.22 311.804 230.724C312.452 231.204 313.184 231.444 314 231.444ZM325.16 234V217.332H328.76V219.888C329.168 219.288 329.624 218.772 330.128 218.34C330.632 217.908 331.196 217.572 331.82 217.332C332.444 217.068 333.116 216.936 333.836 216.936C334.772 216.936 335.636 217.176 336.428 217.656C337.22 218.136 337.856 218.892 338.336 219.924C338.816 220.932 339.056 222.276 339.056 223.956V234H335.492V223.992C335.492 223.008 335.384 222.204 335.168 221.58C334.952 220.956 334.64 220.5 334.232 220.212C333.848 219.924 333.38 219.78 332.828 219.78C332.348 219.78 331.868 219.888 331.388 220.104C330.908 220.32 330.464 220.62 330.056 221.004C329.672 221.364 329.36 221.82 329.12 222.372C328.88 222.9 328.76 223.5 328.76 224.172V234H325.16ZM362.42 237.168H360.836V234.396H362.96C363.92 234.396 364.688 234.276 365.264 234.036C365.864 233.82 366.296 233.436 366.56 232.884C366.848 232.332 366.992 231.612 366.992 230.724L366.92 227.88C366.92 226.944 367.028 226.128 367.244 225.432C367.46 224.712 367.784 224.112 368.216 223.632C368.648 223.128 369.152 222.744 369.728 222.48C369.104 222.168 368.576 221.772 368.144 221.292C367.712 220.788 367.388 220.212 367.172 219.564C366.956 218.892 366.848 218.148 366.848 217.332L366.92 214.488C366.92 213.456 366.68 212.676 366.2 212.148C365.72 211.596 364.988 211.32 364.004 211.32H360.8V208.512H363.356C364.82 208.512 366.068 208.752 367.1 209.232C368.132 209.712 368.924 210.42 369.476 211.356C370.028 212.292 370.304 213.468 370.304 214.884L370.232 217.764C370.232 218.58 370.34 219.24 370.556 219.744C370.772 220.224 371.096 220.572 371.528 220.788C371.96 221.004 372.488 221.112 373.112 221.112H374.12V223.884H373.076C372.5 223.884 371.996 223.98 371.564 224.172C371.156 224.34 370.844 224.676 370.628 225.18C370.412 225.684 370.304 226.416 370.304 227.376L370.448 230.724C370.496 232.428 370.208 233.748 369.584 234.684C368.96 235.62 368.036 236.268 366.812 236.628C365.612 236.988 364.148 237.168 362.42 237.168Z" fill="#9B9B9B"/>
</g>
<defs>
<clipPath id="clip0_159_409">
<rect width="501.579" height="396.891" fill="white" transform="translate(0.704163 0.467529)"/>
</clipPath>
</defs>
</svg>
