<svg width="57" height="87" viewBox="0 0 57 87" fill="none" xmlns="http://www.w3.org/2000/svg">
<path d="M14.412 76.65L13.726 77.35C13.67 77.3127 13.6093 77.224 13.544 77.084C13.404 76.776 13.1847 76.5287 12.886 76.342C12.5967 76.146 12.256 76.048 11.864 76.048C11.5933 76.048 11.3133 76.104 11.024 76.216C10.744 76.328 10.4873 76.5193 10.254 76.79C10.0207 77.0607 9.82933 77.42 9.68 77.868C9.54 78.3067 9.47 78.862 9.47 79.534C9.47 80.1407 9.53067 80.6773 9.652 81.144C9.77333 81.6107 9.94133 82.0027 10.156 82.32C10.3707 82.628 10.6227 82.866 10.912 83.034C11.2107 83.1927 11.5327 83.272 11.878 83.272C12.4847 83.272 13.0353 83.0947 13.53 82.74V80.668H11.948V79.814H14.44V83.23C13.6093 83.8367 12.7553 84.14 11.878 84.14C11.3553 84.14 10.884 84.0373 10.464 83.832C10.0533 83.6173 9.69867 83.3187 9.4 82.936C9.11067 82.5533 8.88667 82.0913 8.728 81.55C8.57867 81.0087 8.504 80.4067 8.504 79.744C8.504 78.8293 8.616 78.064 8.84 77.448C9.07333 76.832 9.372 76.3653 9.736 76.048C10.1 75.7213 10.4687 75.4973 10.842 75.376C11.2247 75.2547 11.57 75.194 11.878 75.194C12.41 75.194 12.9047 75.3293 13.362 75.6C13.8193 75.8613 14.1693 76.2113 14.412 76.65ZM16.232 75.278H20.558V76.104H18.836V83.202H20.642V84.014H16.134V83.188H17.856V76.104H16.232V75.278ZM22.434 75.264H28.482V76.146H25.906V84H24.912V76.146H22.434V75.264ZM29.756 75.278H30.848C30.8573 75.2873 30.862 75.3013 30.862 75.32C30.862 75.348 30.848 75.3853 30.82 75.432C30.8013 75.4787 30.7873 75.5393 30.778 75.614V79.016H34.194V75.278H35.258C35.2673 75.2873 35.272 75.3013 35.272 75.32C35.272 75.3573 35.258 75.3993 35.23 75.446C35.202 75.4833 35.1833 75.53 35.174 75.586V84.014H34.18V79.842H30.778V84H29.756V75.278ZM36.7 75.278H37.806C37.8153 75.278 37.82 75.2873 37.82 75.306C37.82 75.3433 37.7967 75.3993 37.75 75.474C37.7127 75.5393 37.6847 75.6233 37.666 75.726V81.004C37.666 81.4893 37.7127 81.8673 37.806 82.138C37.8993 82.3993 38.03 82.6187 38.198 82.796C38.366 82.964 38.562 83.09 38.786 83.174C39.0193 83.258 39.2667 83.3093 39.528 83.328C39.7893 83.3093 40.032 83.2627 40.256 83.188C40.4893 83.1133 40.69 82.9873 40.858 82.81C41.0353 82.6233 41.1707 82.3947 41.264 82.124C41.3667 81.8533 41.418 81.466 41.418 80.962V75.278H42.356V80.948C42.356 81.5173 42.2907 81.998 42.16 82.39C42.0387 82.782 41.8473 83.1087 41.586 83.37C41.3247 83.6313 41.0213 83.8273 40.676 83.958C40.3307 84.0887 39.9433 84.154 39.514 84.154C39.094 84.154 38.7113 84.0887 38.366 83.958C38.0207 83.8273 37.722 83.636 37.47 83.384C37.2273 83.132 37.036 82.824 36.896 82.46C36.7653 82.096 36.7 81.606 36.7 80.99V75.278ZM43.672 75.278H46.15C46.654 75.278 47.088 75.3293 47.452 75.432C47.8253 75.5253 48.124 75.67 48.348 75.866C48.572 76.062 48.7447 76.2907 48.866 76.552C48.9873 76.804 49.048 77.084 49.048 77.392C49.048 77.8027 48.936 78.19 48.712 78.554C48.488 78.918 48.1707 79.1747 47.76 79.324C48.0027 79.408 48.222 79.5293 48.418 79.688C48.6233 79.8373 48.8007 80.01 48.95 80.206C49.0993 80.402 49.2113 80.6167 49.286 80.85C49.3607 81.074 49.398 81.3073 49.398 81.55C49.398 82.2873 49.1367 82.88 48.614 83.328C48.0913 83.776 47.2653 84 46.136 84H43.672V75.278ZM44.638 76.104V78.89H46.01C46.402 78.89 46.724 78.8573 46.976 78.792C47.228 78.7173 47.4287 78.6193 47.578 78.498C47.7367 78.3767 47.8533 78.232 47.928 78.064C48.0027 77.8867 48.0493 77.7 48.068 77.504C48.0493 77.308 48.0027 77.126 47.928 76.958C47.8627 76.79 47.7553 76.6453 47.606 76.524C47.4567 76.3933 47.2653 76.2907 47.032 76.216C46.7987 76.1413 46.5093 76.104 46.164 76.104H44.638ZM44.638 79.716V83.146H46.304C47.0507 83.146 47.5687 82.992 47.858 82.684C48.1567 82.3667 48.3247 81.97 48.362 81.494C48.3433 81.2327 48.292 80.9947 48.208 80.78C48.124 80.5653 47.9933 80.3787 47.816 80.22C47.648 80.052 47.4147 79.926 47.116 79.842C46.8267 79.758 46.4767 79.716 46.066 79.716H44.638Z" fill="#1A1A1A"/>
<path d="M19.0651 46.7015C19.0651 46.9414 18.8008 47.1333 18.4675 47.1333C18.0883 47.1692 17.824 46.9774 17.824 46.7015C17.824 46.4616 18.0883 46.2698 18.4216 46.2698C18.7663 46.2338 19.0651 46.4257 19.0651 46.7015ZM15.4911 46.1618C15.4107 46.4017 15.6405 46.6775 15.9853 46.7495C16.2841 46.8694 16.6288 46.7495 16.6978 46.5096C16.7667 46.2698 16.5484 45.9939 16.2036 45.886C15.9048 45.802 15.5716 45.922 15.4911 46.1618ZM20.5706 45.9579C20.2373 46.0419 20.0075 46.2698 20.0419 46.5456C20.0764 46.7855 20.3752 46.9414 20.72 46.8574C21.0532 46.7735 21.2831 46.5456 21.2486 46.3057C21.2141 46.0779 20.9038 45.922 20.5706 45.9579ZM28.1323 0C12.1929 0 0 12.6288 0 29.2634C0 42.5639 8.02137 53.9454 19.4788 57.9511C20.9498 58.227 21.4669 57.2795 21.4669 56.5C21.4669 55.7564 21.4325 51.6547 21.4325 49.1361C21.4325 49.1361 13.3881 50.9351 11.6988 45.5622C11.6988 45.5622 10.3887 42.0721 8.50403 41.1726C8.50403 41.1726 5.87238 39.2897 8.6879 39.3257C8.6879 39.3257 11.5494 39.5656 13.1238 42.4199C15.6405 47.0493 19.8581 45.7181 21.5014 44.9265C21.7657 43.0076 22.5127 41.6764 23.3401 40.8848C16.9161 40.1412 10.4347 39.1698 10.4347 27.6323C10.4347 24.3342 11.3081 22.6791 13.1468 20.5683C12.848 19.7888 11.8712 16.5746 13.4456 12.425C15.8474 11.6454 21.375 15.6631 21.375 15.6631C23.6734 14.9915 26.1442 14.6437 28.5919 14.6437C31.0397 14.6437 33.5105 14.9915 35.8089 15.6631C35.8089 15.6631 41.3365 11.6334 43.7383 12.425C45.3127 16.5866 44.3359 19.7888 44.0371 20.5683C45.8758 22.6911 47.002 24.3462 47.002 27.6323C47.002 39.2058 40.2333 40.1292 33.8093 40.8848C34.8665 41.8323 35.7629 43.6313 35.7629 46.4497C35.7629 50.4914 35.7284 55.4925 35.7284 56.476C35.7284 57.2555 36.2571 58.203 37.7165 57.9271C49.2085 53.9454 57 42.5639 57 29.2634C57 12.6288 44.0716 0 28.1323 0ZM11.1702 41.3645C11.0208 41.4845 11.0552 41.7603 11.2506 41.9882C11.4345 42.1801 11.6988 42.264 11.8482 42.1081C11.9976 41.9882 11.9631 41.7123 11.7677 41.4845C11.5839 41.2926 11.3196 41.2086 11.1702 41.3645ZM9.92903 40.3931C9.84859 40.549 9.96351 40.7409 10.1933 40.8608C10.3772 40.9808 10.6071 40.9448 10.6875 40.7769C10.7679 40.621 10.653 40.4291 10.4232 40.3091C10.1933 40.2372 10.0095 40.2732 9.92903 40.3931ZM13.6524 44.6627C13.4685 44.8186 13.5375 45.1784 13.8018 45.4062C14.0661 45.6821 14.3994 45.7181 14.5488 45.5262C14.6982 45.3703 14.6292 45.0105 14.3994 44.7826C14.1466 44.5068 13.8018 44.4708 13.6524 44.6627ZM12.3423 42.8997C12.1585 43.0196 12.1585 43.3314 12.3423 43.6073C12.5262 43.8831 12.8365 44.003 12.9859 43.8831C13.1698 43.7272 13.1698 43.4154 12.9859 43.1395C12.825 42.8637 12.5262 42.7438 12.3423 42.8997Z" fill="#FF4848"/>
</svg>
