<svg width="77" height="77" viewBox="0 0 77 77" fill="none" xmlns="http://www.w3.org/2000/svg">
<path d="M2.91199 76V68.146H0.43399V67.264H6.48199V68.146H3.90599V76H2.91199Z" fill="#1A1A1A"/>
<path d="M11.998 73.452H8.83399L9.02999 72.696H11.774L11.998 73.452ZM10.486 69.364L8.18999 76H7.22399L10.444 67.124H10.556L13.776 76H12.768L10.486 69.364Z" fill="#1A1A1A"/>
<path d="M15.134 76V75.174H16.856V68.104H15.232V67.278H19.558V68.104H17.836V75.188H19.642V76H15.134Z" fill="#1A1A1A"/>
<path d="M21.924 67.278H23.072V67.376C23.016 67.432 22.9787 67.4927 22.96 67.558C22.9507 67.6233 22.946 67.7353 22.946 67.894V75.16H27.146V76H21.924V67.278Z" fill="#1A1A1A"/>
<path d="M29.638 76L28.238 67.278H29.148L30.086 73.172L31.486 67.922H31.794L33.208 73.2L34.006 67.278H34.832L33.446 76H33.068L31.57 70.302L30.044 76H29.638Z" fill="#1A1A1A"/>
<path d="M36.134 76V75.174H37.856V68.104H36.232V67.278H40.558V68.104H38.836V75.188H40.642V76H36.134Z" fill="#1A1A1A"/>
<path d="M42.7 67.278H43.652L47.32 73.746V67.278H48.384V67.376C48.328 67.432 48.2907 67.4927 48.272 67.558C48.2627 67.6233 48.258 67.7353 48.258 67.894V76H47.488L43.638 69.14V76H42.7V67.278Z" fill="#1A1A1A"/>
<path d="M49.756 76.014V67.278H51.786C52.29 67.278 52.7147 67.3247 53.06 67.418C53.4053 67.5113 53.6993 67.6467 53.942 67.824C54.1847 67.992 54.3993 68.2067 54.586 68.468C54.782 68.7293 54.9407 69.0233 55.062 69.35C55.1927 69.6767 55.286 70.036 55.342 70.428C55.4073 70.8107 55.44 71.2307 55.44 71.688C55.412 72.36 55.3233 72.962 55.174 73.494C55.0247 74.026 54.8007 74.4787 54.502 74.852C54.2033 75.2253 53.816 75.5147 53.34 75.72C52.8733 75.916 52.2993 76.014 51.618 76.014H49.756ZM50.68 75.244H51.576C52.248 75.244 52.794 75.1087 53.214 74.838C53.6433 74.5673 53.9607 74.1707 54.166 73.648C54.3713 73.1253 54.4693 72.4907 54.46 71.744C54.46 70.9787 54.3667 70.3253 54.18 69.784C53.9933 69.2427 53.6993 68.8273 53.298 68.538C52.906 68.2487 52.3833 68.104 51.73 68.104H50.68V75.244Z" fill="#1A1A1A"/>
<path d="M59.99 76.14C59.514 76.14 59.0707 76.056 58.66 75.888C58.2493 75.7107 57.8853 75.44 57.568 75.076C57.26 74.712 57.0173 74.25 56.84 73.69C56.6627 73.13 56.574 72.4627 56.574 71.688C56.574 71.0067 56.6393 70.414 56.77 69.91C56.9007 69.3967 57.078 68.9673 57.302 68.622C57.526 68.2767 57.7827 68.0013 58.072 67.796C58.3613 67.5907 58.6647 67.4413 58.982 67.348C59.2993 67.2547 59.6167 67.208 59.934 67.208C60.5687 67.208 61.11 67.3667 61.558 67.684C62.006 67.992 62.342 68.4073 62.566 68.93L61.726 69.322L61.6 69.378L61.558 69.28C61.586 69.2053 61.586 69.14 61.558 69.084C61.53 69.0187 61.4787 68.9207 61.404 68.79C61.1707 68.4727 60.928 68.2627 60.676 68.16C60.4333 68.048 60.1767 67.992 59.906 67.992C59.542 67.992 59.2107 68.076 58.912 68.244C58.6227 68.4027 58.3707 68.6407 58.156 68.958C57.9507 69.266 57.792 69.644 57.68 70.092C57.5773 70.54 57.526 71.0487 57.526 71.618C57.526 72.1687 57.5867 72.668 57.708 73.116C57.8387 73.564 58.0113 73.9513 58.226 74.278C58.45 74.6047 58.7067 74.8567 58.996 75.034C59.2947 75.2113 59.612 75.3 59.948 75.3C60.1813 75.3 60.4053 75.258 60.62 75.174C60.844 75.09 61.0493 74.9687 61.236 74.81C61.4227 74.642 61.5813 74.4507 61.712 74.236L62.44 74.712C62.16 75.1787 61.824 75.5333 61.432 75.776C61.04 76.0187 60.5593 76.14 59.99 76.14Z" fill="#1A1A1A"/>
<path d="M66.458 76.14C65.8887 76.14 65.3753 76.0467 64.918 75.86C64.47 75.6733 64.0733 75.398 63.728 75.034L64.232 74.152L64.288 74.026L64.386 74.082C64.4047 74.1473 64.428 74.222 64.456 74.306C64.484 74.3807 64.5493 74.474 64.652 74.586C64.8947 74.7913 65.1747 74.9547 65.492 75.076C65.8187 75.1973 66.1873 75.258 66.598 75.258C66.8593 75.258 67.0973 75.2207 67.312 75.146C67.536 75.062 67.7273 74.9547 67.886 74.824C68.054 74.684 68.18 74.5253 68.264 74.348C68.3573 74.1613 68.404 73.9653 68.404 73.76C68.404 73.6013 68.3853 73.4567 68.348 73.326C68.32 73.1953 68.2593 73.0787 68.166 72.976C68.082 72.864 67.9653 72.7567 67.816 72.654C67.6667 72.542 67.4753 72.4253 67.242 72.304C67.0087 72.1827 66.7287 72.052 66.402 71.912C65.7953 71.6787 65.3147 71.4267 64.96 71.156C64.6147 70.876 64.3673 70.582 64.218 70.274C64.078 69.966 64.008 69.6487 64.008 69.322C64.008 68.8927 64.1153 68.5193 64.33 68.202C64.5447 67.8753 64.848 67.6233 65.24 67.446C65.6413 67.2593 66.1173 67.166 66.668 67.166C66.9853 67.166 67.2887 67.2127 67.578 67.306C67.8767 67.39 68.152 67.5113 68.404 67.67C68.6653 67.8287 68.894 68.0247 69.09 68.258L68.46 69.098L68.376 69.042C68.3667 68.9673 68.348 68.8927 68.32 68.818C68.292 68.7433 68.2267 68.65 68.124 68.538C67.9 68.3233 67.662 68.1787 67.41 68.104C67.158 68.02 66.8593 67.978 66.514 67.978C66.2807 67.978 66.0707 68.0107 65.884 68.076C65.7067 68.1413 65.5527 68.2347 65.422 68.356C65.2913 68.4773 65.1887 68.6173 65.114 68.776C65.0487 68.9253 65.016 69.084 65.016 69.252C65.016 69.4107 65.0347 69.5553 65.072 69.686C65.1093 69.8167 65.1747 69.9427 65.268 70.064C65.3613 70.1853 65.4873 70.3067 65.646 70.428C65.814 70.5493 66.0193 70.6707 66.262 70.792C66.514 70.9133 66.8173 71.044 67.172 71.184C67.6013 71.3613 67.956 71.5387 68.236 71.716C68.5253 71.884 68.7493 72.066 68.908 72.262C69.076 72.4487 69.1927 72.654 69.258 72.878C69.3327 73.102 69.37 73.3493 69.37 73.62C69.37 74.0213 69.2673 74.418 69.062 74.81C68.866 75.1927 68.5533 75.51 68.124 75.762C67.6947 76.014 67.1393 76.14 66.458 76.14Z" fill="#1A1A1A"/>
<path d="M73.458 76.14C72.8887 76.14 72.3753 76.0467 71.918 75.86C71.47 75.6733 71.0733 75.398 70.728 75.034L71.232 74.152L71.288 74.026L71.386 74.082C71.4047 74.1473 71.428 74.222 71.456 74.306C71.484 74.3807 71.5493 74.474 71.652 74.586C71.8947 74.7913 72.1747 74.9547 72.492 75.076C72.8187 75.1973 73.1873 75.258 73.598 75.258C73.8593 75.258 74.0973 75.2207 74.312 75.146C74.536 75.062 74.7273 74.9547 74.886 74.824C75.054 74.684 75.18 74.5253 75.264 74.348C75.3573 74.1613 75.404 73.9653 75.404 73.76C75.404 73.6013 75.3853 73.4567 75.348 73.326C75.32 73.1953 75.2593 73.0787 75.166 72.976C75.082 72.864 74.9653 72.7567 74.816 72.654C74.6667 72.542 74.4753 72.4253 74.242 72.304C74.0087 72.1827 73.7287 72.052 73.402 71.912C72.7953 71.6787 72.3147 71.4267 71.96 71.156C71.6147 70.876 71.3673 70.582 71.218 70.274C71.078 69.966 71.008 69.6487 71.008 69.322C71.008 68.8927 71.1153 68.5193 71.33 68.202C71.5447 67.8753 71.848 67.6233 72.24 67.446C72.6413 67.2593 73.1173 67.166 73.668 67.166C73.9853 67.166 74.2887 67.2127 74.578 67.306C74.8767 67.39 75.152 67.5113 75.404 67.67C75.6653 67.8287 75.894 68.0247 76.09 68.258L75.46 69.098L75.376 69.042C75.3667 68.9673 75.348 68.8927 75.32 68.818C75.292 68.7433 75.2267 68.65 75.124 68.538C74.9 68.3233 74.662 68.1787 74.41 68.104C74.158 68.02 73.8593 67.978 73.514 67.978C73.2807 67.978 73.0707 68.0107 72.884 68.076C72.7067 68.1413 72.5527 68.2347 72.422 68.356C72.2913 68.4773 72.1887 68.6173 72.114 68.776C72.0487 68.9253 72.016 69.084 72.016 69.252C72.016 69.4107 72.0347 69.5553 72.072 69.686C72.1093 69.8167 72.1747 69.9427 72.268 70.064C72.3613 70.1853 72.4873 70.3067 72.646 70.428C72.814 70.5493 73.0193 70.6707 73.262 70.792C73.514 70.9133 73.8173 71.044 74.172 71.184C74.6013 71.3613 74.956 71.5387 75.236 71.716C75.5253 71.884 75.7493 72.066 75.908 72.262C76.076 72.4487 76.1927 72.654 76.258 72.878C76.3327 73.102 76.37 73.3493 76.37 73.62C76.37 74.0213 76.2673 74.418 76.062 74.81C75.866 75.1927 75.5533 75.51 75.124 75.762C74.6947 76.014 74.1393 76.14 73.458 76.14Z" fill="#1A1A1A"/>
<path fill-rule="evenodd" clip-rule="evenodd" d="M38.5 0C29.5667 0 23.9833 4.47273 21.75 13.4182C25.1 8.94545 29.0083 7.26818 33.475 8.38636C36.0235 9.02373 37.8449 10.8762 39.8611 12.9249C43.1453 16.2633 46.947 20.1273 55.25 20.1273C64.1833 20.1273 69.7667 15.6545 72 6.70909C68.65 11.1818 64.7417 12.8591 60.275 11.7409C57.7265 11.1035 55.9051 9.25109 53.8889 7.20233C50.6047 3.86394 46.803 0 38.5 0ZM21.75 20.1273C12.8167 20.1273 7.23332 24.6 4.99999 33.5455C8.34999 29.0727 12.2583 27.3955 16.725 28.5136C19.2735 29.1522 21.0949 31.0035 23.1111 33.0522C26.3953 36.3906 30.197 40.2545 38.5 40.2545C47.4333 40.2545 53.0167 35.7818 55.25 26.8364C51.9 31.3091 47.9917 32.9864 43.525 31.8682C40.9765 31.2308 39.1551 29.3784 37.1389 27.3296C33.8547 23.9912 30.053 20.1273 21.75 20.1273Z" fill="#FF4848"/>
</svg>
