<svg width="51" height="88" viewBox="0 0 51 88" fill="none" xmlns="http://www.w3.org/2000/svg">
<path d="M0 0.618164L4.63516 52.5909L25.5 59.4453L46.3648 52.5909L51 0.618164H0ZM41.5836 11.123L40.9461 17.334L25.6328 23.8076L25.593 23.8207H40.4016L38.7016 43.0709L25.6594 46.8395L12.5375 43.0052L11.6875 33.3014H18.182L18.607 38.3306L25.593 40.077L32.8578 38.0548L33.3492 29.9661L11.2625 29.9004V29.8873L11.2359 29.9004L10.7578 23.8207L25.6461 17.6885L26.5094 17.334H10.1867L9.41641 11.123H41.5836Z" fill="#FF4848"/>
<path d="M14.99 85.14C14.514 85.14 14.0707 85.056 13.66 84.888C13.2493 84.7107 12.8853 84.44 12.568 84.076C12.26 83.712 12.0173 83.25 11.84 82.69C11.6627 82.13 11.574 81.4627 11.574 80.688C11.574 80.0067 11.6393 79.414 11.77 78.91C11.9007 78.3967 12.078 77.9673 12.302 77.622C12.526 77.2767 12.7827 77.0013 13.072 76.796C13.3613 76.5907 13.6647 76.4413 13.982 76.348C14.2993 76.2547 14.6167 76.208 14.934 76.208C15.5687 76.208 16.11 76.3667 16.558 76.684C17.006 76.992 17.342 77.4073 17.566 77.93L16.726 78.322L16.6 78.378L16.558 78.28C16.586 78.2053 16.586 78.14 16.558 78.084C16.53 78.0187 16.4787 77.9207 16.404 77.79C16.1707 77.4727 15.928 77.2627 15.676 77.16C15.4333 77.048 15.1767 76.992 14.906 76.992C14.542 76.992 14.2107 77.076 13.912 77.244C13.6227 77.4027 13.3707 77.6407 13.156 77.958C12.9507 78.266 12.792 78.644 12.68 79.092C12.5773 79.54 12.526 80.0487 12.526 80.618C12.526 81.1687 12.5867 81.668 12.708 82.116C12.8387 82.564 13.0113 82.9513 13.226 83.278C13.45 83.6047 13.7067 83.8567 13.996 84.034C14.2947 84.2113 14.612 84.3 14.948 84.3C15.1813 84.3 15.4053 84.258 15.62 84.174C15.844 84.09 16.0493 83.9687 16.236 83.81C16.4227 83.642 16.5813 83.4507 16.712 83.236L17.44 83.712C17.16 84.1787 16.824 84.5333 16.432 84.776C16.04 85.0187 15.5593 85.14 14.99 85.14ZM21.458 85.14C20.8887 85.14 20.3753 85.0467 19.918 84.86C19.47 84.6733 19.0733 84.398 18.728 84.034L19.232 83.152L19.288 83.026L19.386 83.082C19.4047 83.1473 19.428 83.222 19.456 83.306C19.484 83.3807 19.5493 83.474 19.652 83.586C19.8947 83.7913 20.1747 83.9547 20.492 84.076C20.8187 84.1973 21.1873 84.258 21.598 84.258C21.8593 84.258 22.0973 84.2207 22.312 84.146C22.536 84.062 22.7273 83.9547 22.886 83.824C23.054 83.684 23.18 83.5253 23.264 83.348C23.3573 83.1613 23.404 82.9653 23.404 82.76C23.404 82.6013 23.3853 82.4567 23.348 82.326C23.32 82.1953 23.2593 82.0787 23.166 81.976C23.082 81.864 22.9653 81.7567 22.816 81.654C22.6667 81.542 22.4753 81.4253 22.242 81.304C22.0087 81.1827 21.7287 81.052 21.402 80.912C20.7953 80.6787 20.3147 80.4267 19.96 80.156C19.6147 79.876 19.3673 79.582 19.218 79.274C19.078 78.966 19.008 78.6487 19.008 78.322C19.008 77.8927 19.1153 77.5193 19.33 77.202C19.5447 76.8753 19.848 76.6233 20.24 76.446C20.6413 76.2593 21.1173 76.166 21.668 76.166C21.9853 76.166 22.2887 76.2127 22.578 76.306C22.8767 76.39 23.152 76.5113 23.404 76.67C23.6653 76.8287 23.894 77.0247 24.09 77.258L23.544 77.986L23.46 78.098L23.376 78.042C23.3667 77.9673 23.348 77.8927 23.32 77.818C23.292 77.7433 23.2267 77.65 23.124 77.538C22.9 77.3233 22.662 77.1787 22.41 77.104C22.158 77.02 21.8593 76.978 21.514 76.978C21.2807 76.978 21.0707 77.0107 20.884 77.076C20.7067 77.1413 20.5527 77.2347 20.422 77.356C20.2913 77.4773 20.1887 77.6173 20.114 77.776C20.0487 77.9253 20.016 78.084 20.016 78.252C20.016 78.4107 20.0347 78.5553 20.072 78.686C20.1093 78.8167 20.1747 78.9427 20.268 79.064C20.3613 79.1853 20.4873 79.3067 20.646 79.428C20.814 79.5493 21.0193 79.6707 21.262 79.792C21.514 79.9133 21.8173 80.044 22.172 80.184C22.6013 80.3613 22.956 80.5387 23.236 80.716C23.5253 80.884 23.7493 81.066 23.908 81.262C24.076 81.4487 24.1927 81.654 24.258 81.878C24.3327 82.102 24.37 82.3493 24.37 82.62C24.37 83.0213 24.2673 83.418 24.062 83.81C23.866 84.1927 23.5533 84.51 23.124 84.762C22.6947 85.014 22.1393 85.14 21.458 85.14ZM28.458 85.14C27.8887 85.14 27.3753 85.0467 26.918 84.86C26.47 84.6733 26.0733 84.398 25.728 84.034L26.232 83.152L26.288 83.026L26.386 83.082C26.4047 83.1473 26.428 83.222 26.456 83.306C26.484 83.3807 26.5493 83.474 26.652 83.586C26.8947 83.7913 27.1747 83.9547 27.492 84.076C27.8187 84.1973 28.1873 84.258 28.598 84.258C28.8593 84.258 29.0973 84.2207 29.312 84.146C29.536 84.062 29.7273 83.9547 29.886 83.824C30.054 83.684 30.18 83.5253 30.264 83.348C30.3573 83.1613 30.404 82.9653 30.404 82.76C30.404 82.6013 30.3853 82.4567 30.348 82.326C30.32 82.1953 30.2593 82.0787 30.166 81.976C30.082 81.864 29.9653 81.7567 29.816 81.654C29.6667 81.542 29.4753 81.4253 29.242 81.304C29.0087 81.1827 28.7287 81.052 28.402 80.912C27.7953 80.6787 27.3147 80.4267 26.96 80.156C26.6147 79.876 26.3673 79.582 26.218 79.274C26.078 78.966 26.008 78.6487 26.008 78.322C26.008 77.8927 26.1153 77.5193 26.33 77.202C26.5447 76.8753 26.848 76.6233 27.24 76.446C27.6413 76.2593 28.1173 76.166 28.668 76.166C28.9853 76.166 29.2887 76.2127 29.578 76.306C29.8767 76.39 30.152 76.5113 30.404 76.67C30.6653 76.8287 30.894 77.0247 31.09 77.258L30.544 77.986L30.46 78.098L30.376 78.042C30.3667 77.9673 30.348 77.8927 30.32 77.818C30.292 77.7433 30.2267 77.65 30.124 77.538C29.9 77.3233 29.662 77.1787 29.41 77.104C29.158 77.02 28.8593 76.978 28.514 76.978C28.2807 76.978 28.0707 77.0107 27.884 77.076C27.7067 77.1413 27.5527 77.2347 27.422 77.356C27.2913 77.4773 27.1887 77.6173 27.114 77.776C27.0487 77.9253 27.016 78.084 27.016 78.252C27.016 78.4107 27.0347 78.5553 27.072 78.686C27.1093 78.8167 27.1747 78.9427 27.268 79.064C27.3613 79.1853 27.4873 79.3067 27.646 79.428C27.814 79.5493 28.0193 79.6707 28.262 79.792C28.514 79.9133 28.8173 80.044 29.172 80.184C29.6013 80.3613 29.956 80.5387 30.236 80.716C30.5253 80.884 30.7493 81.066 30.908 81.262C31.076 81.4487 31.1927 81.654 31.258 81.878C31.3327 82.102 31.37 82.3493 31.37 82.62C31.37 83.0213 31.2673 83.418 31.062 83.81C30.866 84.1927 30.5533 84.51 30.124 84.762C29.6947 85.014 29.1393 85.14 28.458 85.14ZM35.36 85.154C34.9027 85.154 34.464 85.07 34.044 84.902C33.624 84.734 33.2647 84.4867 32.966 84.16L33.61 83.39L33.708 83.278L33.778 83.348C33.7873 83.4227 33.806 83.4973 33.834 83.572C33.862 83.6373 33.9273 83.726 34.03 83.838C34.1887 83.978 34.3707 84.0947 34.576 84.188C34.7813 84.272 35.0287 84.314 35.318 84.314C35.6913 84.314 35.9993 84.2393 36.242 84.09C36.4847 83.9407 36.6667 83.7353 36.788 83.474C36.9093 83.2033 36.97 82.9 36.97 82.564C36.97 82.228 36.9093 81.9433 36.788 81.71C36.676 81.4767 36.5127 81.2947 36.298 81.164C36.0833 81.024 35.8267 80.9307 35.528 80.884C35.2293 80.828 34.8933 80.8187 34.52 80.856V80.072C34.968 80.072 35.332 80.0253 35.612 79.932C35.9013 79.8387 36.1207 79.7127 36.27 79.554C36.4287 79.3953 36.536 79.2133 36.592 79.008C36.648 78.7933 36.676 78.574 36.676 78.35C36.676 78.154 36.6433 77.9767 36.578 77.818C36.522 77.6593 36.438 77.524 36.326 77.412C36.2233 77.3 36.0927 77.216 35.934 77.16C35.7847 77.0947 35.6167 77.062 35.43 77.062C35.2433 77.062 35.0567 77.0853 34.87 77.132C34.6927 77.1693 34.5153 77.2347 34.338 77.328C34.17 77.4213 34.002 77.5473 33.834 77.706L33.246 77.118C33.5633 76.7913 33.9087 76.5627 34.282 76.432C34.6647 76.292 35.0427 76.222 35.416 76.222C35.892 76.222 36.298 76.3153 36.634 76.502C36.97 76.6793 37.2267 76.9313 37.404 77.258C37.5907 77.5847 37.684 77.9627 37.684 78.392C37.684 78.6907 37.6327 78.9753 37.53 79.246C37.4367 79.5073 37.2873 79.736 37.082 79.932C36.8767 80.128 36.62 80.2773 36.312 80.38C36.6387 80.4827 36.928 80.6367 37.18 80.842C37.432 81.038 37.628 81.2807 37.768 81.57C37.908 81.8593 37.978 82.2047 37.978 82.606C37.978 83.0633 37.8753 83.488 37.67 83.88C37.474 84.2627 37.18 84.5707 36.788 84.804C36.4053 85.0373 35.9293 85.154 35.36 85.154Z" fill="#1A1A1A"/>
</svg>
