<svg width="35" height="37" viewBox="0 0 35 37" fill="none" xmlns="http://www.w3.org/2000/svg">
<path d="M11.7067 29.4003C11.7067 29.5481 11.5444 29.6664 11.3397 29.6664C11.1069 29.6886 10.9446 29.5703 10.9446 29.4003C10.9446 29.2525 11.1069 29.1343 11.3115 29.1343C11.5232 29.1121 11.7067 29.2303 11.7067 29.4003ZM9.5121 29.0677C9.4627 29.2156 9.60383 29.3855 9.81553 29.4299C9.99899 29.5038 10.2107 29.4299 10.253 29.2821C10.2954 29.1343 10.1613 28.9643 9.9496 28.8978C9.76613 28.846 9.56149 28.9199 9.5121 29.0677ZM12.631 28.9421C12.4264 28.9938 12.2853 29.1343 12.3065 29.3042C12.3276 29.4521 12.5111 29.5481 12.7228 29.4964C12.9274 29.4447 13.0685 29.3042 13.0474 29.1564C13.0262 29.016 12.8357 28.9199 12.631 28.9421ZM17.2742 0.620605C7.4869 0.620605 0 8.4031 0 18.6541C0 26.8505 4.9254 33.8644 11.9607 36.3329C12.8639 36.5029 13.1815 35.919 13.1815 35.4386C13.1815 34.9804 13.1603 32.4527 13.1603 30.9007C13.1603 30.9007 8.22077 32.0093 7.18347 28.6982C7.18347 28.6982 6.37903 26.5475 5.22177 25.9932C5.22177 25.9932 3.60585 24.8328 5.33468 24.855C5.33468 24.855 7.09173 25.0028 8.05847 26.7618C9.60383 29.6147 12.1935 28.7943 13.2026 28.3065C13.3649 27.124 13.8236 26.3036 14.3317 25.8158C10.3871 25.3576 6.40726 24.7589 6.40726 17.649C6.40726 15.6165 6.94355 14.5966 8.07258 13.2958C7.88911 12.8154 7.28931 10.8347 8.25605 8.27746C9.73085 7.79706 13.125 10.273 13.125 10.273C14.5363 9.85909 16.0534 9.64475 17.5565 9.64475C19.0595 9.64475 20.5766 9.85909 21.9879 10.273C21.9879 10.273 25.3821 7.78967 26.8569 8.27746C27.8236 10.8421 27.2238 12.8154 27.0403 13.2958C28.1694 14.604 28.8609 15.6239 28.8609 17.649C28.8609 24.7811 24.7046 25.3502 20.7601 25.8158C21.4093 26.3997 21.9597 27.5083 21.9597 29.2451C21.9597 31.7358 21.9385 34.8178 21.9385 35.4238C21.9385 35.9042 22.2631 36.4881 23.1593 36.3181C30.2157 33.8644 35 26.8505 35 18.6541C35 8.4031 27.0615 0.620605 17.2742 0.620605ZM6.85887 26.1114C6.76714 26.1853 6.78831 26.3553 6.90827 26.4957C7.02117 26.614 7.18347 26.6657 7.2752 26.5697C7.36694 26.4957 7.34577 26.3258 7.22581 26.1853C7.1129 26.0671 6.9506 26.0153 6.85887 26.1114ZM6.09677 25.5128C6.04738 25.6088 6.11794 25.7271 6.25907 25.801C6.37198 25.8749 6.5131 25.8527 6.5625 25.7493C6.6119 25.6532 6.54133 25.5349 6.4002 25.461C6.25907 25.4167 6.14617 25.4389 6.09677 25.5128ZM8.38306 28.1439C8.27016 28.24 8.3125 28.4617 8.4748 28.6021C8.6371 28.7721 8.84173 28.7943 8.93347 28.676C9.0252 28.5799 8.98286 28.3582 8.84173 28.2178C8.68649 28.0478 8.4748 28.0256 8.38306 28.1439ZM7.57863 27.0574C7.46573 27.1314 7.46573 27.3235 7.57863 27.4935C7.69153 27.6635 7.88206 27.7374 7.97379 27.6635C8.08669 27.5674 8.08669 27.3752 7.97379 27.2053C7.875 27.0353 7.69153 26.9614 7.57863 27.0574Z" fill="#FF4848"/>
</svg>
