<svg width="51" height="88" viewBox="0 0 51 88" fill="none" xmlns="http://www.w3.org/2000/svg">
<path d="M0 0.618164L4.63516 52.5909L25.4336 59.4453L46.3648 52.5909L51 0.618164H0ZM40.9328 17.4128H16.5219L17.0664 23.8995H40.3883L38.582 43.386L25.5797 46.9314V46.9708H25.4336L12.325 43.386L11.5281 33.4327H17.8633L18.3281 38.4356L25.4336 40.3396L32.5656 38.4356L33.3625 30.2681H11.1961L9.49609 11.1493H41.5172L40.9328 17.4128Z" fill="#FF4848"/>
<path d="M8.7 76.278H9.708H9.848V76.376C9.792 76.432 9.75467 76.4927 9.736 76.558C9.72667 76.6233 9.722 76.7353 9.722 76.894V80.002H13.138V76.278H14.146H14.286V76.376C14.23 76.432 14.1927 76.4927 14.174 76.558C14.1647 76.6233 14.16 76.7353 14.16 76.894V85H13.124V80.842H9.722V85H8.7V76.278ZM17.912 85V77.146H15.434V76.264H21.482V77.146H18.906V85H17.912ZM22.574 85V76.278H23.344L25.5 80.548L27.698 76.264H28.44V85H27.516V78.42L25.626 81.934H25.248L23.484 78.462V85H22.574ZM29.924 76.278H30.932H31.072V76.376C31.016 76.432 30.9787 76.4927 30.96 76.558C30.9507 76.6233 30.946 76.7353 30.946 76.894V84.16H35.146V85H29.924V76.278ZM39.486 85.154C38.954 85.154 38.4593 85.0373 38.002 84.804C37.554 84.5707 37.1853 84.2393 36.896 83.81L37.68 83.222L37.792 83.138L37.848 83.208C37.8387 83.2827 37.848 83.3527 37.876 83.418C37.9133 83.4833 37.9787 83.5767 38.072 83.698C38.2587 83.9033 38.464 84.0573 38.688 84.16C38.9213 84.2533 39.206 84.3 39.542 84.3C39.766 84.3 39.9807 84.2533 40.186 84.16C40.3913 84.0573 40.5687 83.9173 40.718 83.74C40.8767 83.5627 41.0027 83.3433 41.096 83.082C41.1893 82.8207 41.236 82.5313 41.236 82.214C41.236 81.8873 41.1893 81.598 41.096 81.346C41.0027 81.0847 40.872 80.8653 40.704 80.688C40.5453 80.5107 40.3587 80.3753 40.144 80.282C39.9293 80.1887 39.696 80.142 39.444 80.142C39.248 80.142 39.0473 80.1747 38.842 80.24C38.646 80.3053 38.4593 80.3987 38.282 80.52C38.114 80.6413 37.9553 80.7907 37.806 80.968L37.19 80.716L37.484 76.278H41.908V77.16H38.31L38.17 79.666C38.3287 79.5913 38.4827 79.5307 38.632 79.484C38.7907 79.428 38.9493 79.3907 39.108 79.372C39.276 79.344 39.4393 79.33 39.598 79.33C39.9807 79.33 40.3307 79.4 40.648 79.54C40.9653 79.6707 41.2407 79.8667 41.474 80.128C41.7167 80.38 41.9033 80.688 42.034 81.052C42.1647 81.4067 42.23 81.808 42.23 82.256C42.23 82.8533 42.1087 83.3713 41.866 83.81C41.6233 84.2393 41.2967 84.5707 40.886 84.804C40.4753 85.0373 40.0087 85.154 39.486 85.154Z" fill="#1A1A1A"/>
</svg>
