<svg width="70" height="88" viewBox="0 0 70 88" fill="none" xmlns="http://www.w3.org/2000/svg">
<path d="M5 0.618164V59.4453H64V0.618164H5ZM37.1076 46.4981C37.1076 52.2232 33.7362 54.8363 28.8239 54.8363C24.3857 54.8363 21.8176 52.5515 20.5007 49.7808L25.0179 47.0627C25.8871 48.5991 26.6772 49.899 28.5868 49.899C30.4042 49.899 31.5632 49.19 31.5632 46.4193V27.6288H37.1076V46.4981ZM50.2246 54.8363C45.0752 54.8363 41.7433 52.3939 40.1234 49.19L44.6406 46.59C45.8259 48.5203 47.3799 49.9516 50.106 49.9516C52.3975 49.9516 53.8725 48.8092 53.8725 47.2203C53.8725 45.3294 52.3712 44.6597 49.8295 43.5436L48.4467 42.9527C44.4431 41.2588 41.796 39.1184 41.796 34.6145C41.796 30.4651 44.9699 27.3136 49.9085 27.3136C53.4379 27.3136 55.9665 28.5348 57.7839 31.7388L53.4643 34.4963C52.5161 32.8024 51.4888 32.1327 49.8953 32.1327C48.2754 32.1327 47.2482 33.1569 47.2482 34.4963C47.2482 36.1508 48.2754 36.8205 50.6592 37.8578L52.042 38.4487C56.7567 40.4578 59.4038 42.5194 59.4038 47.1415C59.4038 52.105 55.4792 54.8363 50.2246 54.8363Z" fill="#FF4848"/>
<path d="M2.744 85.154C2.33333 85.154 1.95533 85.0747 1.61 84.916C1.26467 84.748 0.956667 84.5053 0.686 84.188L1.246 83.488L1.344 83.376L1.414 83.432C1.42333 83.516 1.442 83.5907 1.47 83.656C1.50733 83.7213 1.58667 83.8053 1.708 83.908C1.86667 84.0293 2.02533 84.1227 2.184 84.188C2.352 84.2533 2.53867 84.286 2.744 84.286C3.06133 84.286 3.318 84.216 3.514 84.076C3.71 83.936 3.85467 83.7073 3.948 83.39C4.04133 83.0633 4.088 82.6293 4.088 82.088V77.104H2.408V76.278H6.398V77.104H5.054V82.074C5.07267 82.634 5.02133 83.11 4.9 83.502C4.77867 83.894 4.606 84.216 4.382 84.468C4.158 84.7107 3.906 84.888 3.626 85C3.346 85.1027 3.052 85.154 2.744 85.154ZM11.998 82.452H8.834L9.03 81.696H11.774L11.998 82.452ZM10.486 78.364L8.19 85H7.224L10.444 76.124H10.556L13.776 85H12.768L10.486 78.364ZM17.318 85.056L14.35 76.264H15.372L17.612 82.97L19.726 76.278H20.692L17.766 85.056H17.318ZM25.998 82.452H22.834L23.03 81.696H25.774L25.998 82.452ZM24.486 78.364L22.19 85H21.224L24.444 76.124H24.556L27.776 85H26.768L24.486 78.364ZM31.458 85.14C30.8887 85.14 30.3753 85.0467 29.918 84.86C29.47 84.6733 29.0733 84.398 28.728 84.034L29.232 83.152L29.288 83.026L29.386 83.082C29.4047 83.1473 29.428 83.222 29.456 83.306C29.484 83.3807 29.5493 83.474 29.652 83.586C29.8947 83.7913 30.1747 83.9547 30.492 84.076C30.8187 84.1973 31.1873 84.258 31.598 84.258C31.8593 84.258 32.0973 84.2207 32.312 84.146C32.536 84.062 32.7273 83.9547 32.886 83.824C33.054 83.684 33.18 83.5253 33.264 83.348C33.3573 83.1613 33.404 82.9653 33.404 82.76C33.404 82.6013 33.3853 82.4567 33.348 82.326C33.32 82.1953 33.2593 82.0787 33.166 81.976C33.082 81.864 32.9653 81.7567 32.816 81.654C32.6667 81.542 32.4753 81.4253 32.242 81.304C32.0087 81.1827 31.7287 81.052 31.402 80.912C30.7953 80.6787 30.3147 80.4267 29.96 80.156C29.6147 79.876 29.3673 79.582 29.218 79.274C29.078 78.966 29.008 78.6487 29.008 78.322C29.008 77.8927 29.1153 77.5193 29.33 77.202C29.5447 76.8753 29.848 76.6233 30.24 76.446C30.6413 76.2593 31.1173 76.166 31.668 76.166C31.9853 76.166 32.2887 76.2127 32.578 76.306C32.8767 76.39 33.152 76.5113 33.404 76.67C33.6653 76.8287 33.894 77.0247 34.09 77.258L33.544 77.986L33.46 78.098L33.376 78.042C33.3667 77.9673 33.348 77.8927 33.32 77.818C33.292 77.7433 33.2267 77.65 33.124 77.538C32.9 77.3233 32.662 77.1787 32.41 77.104C32.158 77.02 31.8593 76.978 31.514 76.978C31.2807 76.978 31.0707 77.0107 30.884 77.076C30.7067 77.1413 30.5527 77.2347 30.422 77.356C30.2913 77.4773 30.1887 77.6173 30.114 77.776C30.0487 77.9253 30.016 78.084 30.016 78.252C30.016 78.4107 30.0347 78.5553 30.072 78.686C30.1093 78.8167 30.1747 78.9427 30.268 79.064C30.3613 79.1853 30.4873 79.3067 30.646 79.428C30.814 79.5493 31.0193 79.6707 31.262 79.792C31.514 79.9133 31.8173 80.044 32.172 80.184C32.6013 80.3613 32.956 80.5387 33.236 80.716C33.5253 80.884 33.7493 81.066 33.908 81.262C34.076 81.4487 34.1927 81.654 34.258 81.878C34.3327 82.102 34.37 82.3493 34.37 82.62C34.37 83.0213 34.2673 83.418 34.062 83.81C33.866 84.1927 33.5533 84.51 33.124 84.762C32.6947 85.014 32.1393 85.14 31.458 85.14ZM38.99 85.14C38.514 85.14 38.0707 85.056 37.66 84.888C37.2493 84.7107 36.8853 84.44 36.568 84.076C36.26 83.712 36.0173 83.25 35.84 82.69C35.6627 82.13 35.574 81.4627 35.574 80.688C35.574 80.0067 35.6393 79.414 35.77 78.91C35.9007 78.3967 36.078 77.9673 36.302 77.622C36.526 77.2767 36.7827 77.0013 37.072 76.796C37.3613 76.5907 37.6647 76.4413 37.982 76.348C38.2993 76.2547 38.6167 76.208 38.934 76.208C39.5687 76.208 40.11 76.3667 40.558 76.684C41.006 76.992 41.342 77.4073 41.566 77.93L40.726 78.322L40.6 78.378L40.558 78.28C40.586 78.2053 40.586 78.14 40.558 78.084C40.53 78.0187 40.4787 77.9207 40.404 77.79C40.1707 77.4727 39.928 77.2627 39.676 77.16C39.4333 77.048 39.1767 76.992 38.906 76.992C38.542 76.992 38.2107 77.076 37.912 77.244C37.6227 77.4027 37.3707 77.6407 37.156 77.958C36.9507 78.266 36.792 78.644 36.68 79.092C36.5773 79.54 36.526 80.0487 36.526 80.618C36.526 81.1687 36.5867 81.668 36.708 82.116C36.8387 82.564 37.0113 82.9513 37.226 83.278C37.45 83.6047 37.7067 83.8567 37.996 84.034C38.2947 84.2113 38.612 84.3 38.948 84.3C39.1813 84.3 39.4053 84.258 39.62 84.174C39.844 84.09 40.0493 83.9687 40.236 83.81C40.4227 83.642 40.5813 83.4507 40.712 83.236L41.44 83.712C41.16 84.1787 40.824 84.5333 40.432 84.776C40.04 85.0187 39.5593 85.14 38.99 85.14ZM42.784 85V76.278H45.36C46.0507 76.278 46.606 76.3807 47.026 76.586C47.4553 76.7913 47.768 77.0807 47.964 77.454C48.16 77.8273 48.258 78.266 48.258 78.77C48.258 79.0967 48.1833 79.4233 48.034 79.75C47.894 80.0767 47.6887 80.3613 47.418 80.604C47.1567 80.8467 46.844 81.0147 46.48 81.108L48.496 85H47.404L45.472 81.15H43.778V85H42.784ZM43.778 80.282H45.472C46.0973 80.282 46.55 80.1467 46.83 79.876C47.11 79.596 47.25 79.2273 47.25 78.77C47.25 78.4807 47.1893 78.2193 47.068 77.986C46.9467 77.7433 46.7553 77.552 46.494 77.412C46.2327 77.272 45.892 77.202 45.472 77.202H43.778V80.282ZM50.134 85V84.174H51.856V77.104H50.232V76.278H54.558V77.104H52.836V84.188H54.642V85H50.134ZM56.826 85V76.278H59.626C60.2793 76.278 60.8067 76.39 61.208 76.614C61.6093 76.838 61.9033 77.1367 62.09 77.51C62.286 77.874 62.384 78.2847 62.384 78.742C62.384 79.078 62.3327 79.3907 62.23 79.68C62.1273 79.9693 61.964 80.226 61.74 80.45C61.5253 80.674 61.25 80.8467 60.914 80.968C60.578 81.0893 60.172 81.15 59.696 81.15H57.834V85H56.826ZM57.834 80.282H59.584C60.0133 80.282 60.3587 80.2213 60.62 80.1C60.8813 79.9693 61.0727 79.792 61.194 79.568C61.3153 79.3347 61.376 79.0687 61.376 78.77C61.376 78.4807 61.3153 78.2193 61.194 77.986C61.0727 77.7527 60.8813 77.566 60.62 77.426C60.3587 77.2767 60.018 77.202 59.598 77.202H57.834V80.282ZM65.912 85V77.146H63.434V76.264H69.482V77.146H66.906V85H65.912Z" fill="#1A1A1A"/>
</svg>
