<svg width="67" height="88" viewBox="0 0 67 88" fill="none" xmlns="http://www.w3.org/2000/svg">
<path d="M54.7254 19.6818C54.0188 19.4455 53.3121 19.2222 52.6055 19.0122C52.7232 18.5263 52.8279 18.0405 52.9326 17.5547C54.5422 9.72899 53.4822 3.43955 49.9098 1.36495C46.4682 -0.617732 40.8543 1.44373 35.175 6.40701C34.6123 6.89283 34.0627 7.40492 33.5393 7.917C33.1859 7.57561 32.8195 7.23422 32.4531 6.90596C26.499 1.6013 20.5318 -0.630862 16.9594 1.45687C13.5309 3.45268 12.5102 9.37447 13.9496 16.78C14.0936 17.5153 14.2506 18.2375 14.4338 18.9728C13.5963 19.2091 12.7719 19.4717 11.9998 19.7475C5.01191 22.1766 0 26.0106 0 29.976C0 34.0727 5.33906 38.1825 12.6018 40.6772C13.1906 40.8742 13.7795 41.0712 14.3814 41.2419C14.1852 42.0297 14.015 42.8044 13.858 43.6053C12.484 50.8927 13.557 56.67 16.9855 58.6527C20.5188 60.701 26.4598 58.6002 32.2437 53.5187C32.7018 53.1117 33.1598 52.6915 33.6178 52.2451C34.1936 52.8097 34.7955 53.348 35.3975 53.8733C40.9982 58.7052 46.5336 60.6617 49.949 58.679C53.4822 56.6306 54.6338 50.42 53.142 42.8569C53.0242 42.2792 52.8934 41.6883 52.7494 41.0843C53.1682 40.9661 53.5738 40.8348 53.9795 40.7035C61.5301 38.1956 67 34.1383 67 29.976C67 25.9975 61.8441 22.1372 54.7254 19.6818ZM37.0201 8.53413C41.8881 4.27989 46.4289 2.61234 48.4965 3.8072C50.708 5.08084 51.5586 10.2279 50.1715 16.9901C50.0799 17.4365 49.9883 17.8698 49.8705 18.3031C46.9654 17.6466 44.0211 17.1739 41.0637 16.9113C39.3625 14.4691 37.5043 12.1318 35.4891 9.93908C35.9994 9.45325 36.4967 8.99369 37.0201 8.53413ZM21.8797 36.7907C22.5471 37.933 23.2275 39.0753 23.9473 40.1914C21.9059 39.9682 19.8775 39.6399 17.8754 39.2066C18.4512 37.3159 19.1709 35.3595 20.0084 33.3636C20.6104 34.5191 21.2254 35.6614 21.8797 36.7907ZM17.9146 20.9948C19.799 20.5747 21.8012 20.2333 23.8818 19.9707C23.1883 21.0605 22.5078 22.1766 21.8666 23.3058C21.2254 24.4219 20.5973 25.5642 20.0084 26.7197C19.184 24.7633 18.4904 22.8462 17.9146 20.9948ZM21.5002 30.0417C22.3639 28.2297 23.3061 26.4571 24.3006 24.7107C25.2951 22.9644 26.3682 21.2706 27.4936 19.603C29.4564 19.4586 31.4586 19.3798 33.5 19.3798C35.5414 19.3798 37.5566 19.4586 39.5064 19.603C40.6187 21.2574 41.6787 22.9513 42.6863 24.6845C43.6939 26.4177 44.6361 28.1903 45.526 29.9891C44.6492 31.8011 43.707 33.5869 42.6994 35.3463C41.7049 37.0927 40.6449 38.7865 39.5326 40.4672C37.5828 40.6116 35.5545 40.6772 33.5 40.6772C31.4455 40.6772 29.4564 40.6116 27.5328 40.4934C26.3943 38.8259 25.3213 37.1189 24.3137 35.3726C23.3061 33.6262 22.377 31.8536 21.5002 30.0417ZM45.1334 36.7644C45.8008 35.6089 46.4289 34.4403 47.0439 33.2586C47.8814 35.1625 48.6143 37.0927 49.2555 39.0753C47.2271 39.5349 45.1727 39.8894 43.1051 40.1258C43.8117 39.0228 44.4791 37.8936 45.1334 36.7644ZM47.0178 26.7197C46.4027 25.5642 45.7746 24.4087 45.1203 23.2795C44.4791 22.1634 43.8117 21.0605 43.1182 19.9707C45.225 20.2333 47.2402 20.5878 49.1246 21.0211C48.5227 22.9644 47.816 24.8552 47.0178 26.7197ZM33.5262 11.948C34.9002 13.4449 36.1957 15.0205 37.3996 16.6487C34.8086 16.5305 32.2045 16.5305 29.6135 16.6487C30.8959 14.9549 32.2176 13.3792 33.5262 11.948ZM18.3465 3.89911C20.5449 2.61234 25.426 4.45059 30.5688 9.01995C30.8959 9.30882 31.223 9.62395 31.5633 9.93908C29.535 12.1318 27.6637 14.4691 25.9494 16.9113C22.992 17.1739 20.0607 17.6335 17.1557 18.2769C16.9855 17.6072 16.8416 16.9244 16.6977 16.2416C15.4676 9.88656 16.2789 5.09397 18.3465 3.89911ZM15.1404 38.5107C14.5908 38.3532 14.0543 38.1825 13.5178 37.9987C10.7305 37.1189 7.56367 35.7271 5.27363 33.902C3.95195 32.9829 3.06211 31.5648 2.81348 29.976C2.81348 27.5732 6.94863 24.5006 12.9158 22.4129C13.6617 22.1503 14.4207 21.914 15.1797 21.6907C16.0695 24.54 17.1426 27.3368 18.3857 30.0417C17.1295 32.7859 16.0434 35.6221 15.1404 38.5107ZM30.3986 51.3785C28.2395 53.3612 25.74 54.9368 23.0182 56.0135C21.5656 56.7094 19.8906 56.7751 18.3988 56.1842C16.3182 54.9762 15.4545 50.3412 16.6322 44.1043C16.7762 43.369 16.9332 42.6337 17.1164 41.9115C20.0477 42.5418 23.0051 42.9751 26.0018 43.1983C27.7291 45.6537 29.6266 48.004 31.6549 50.2099C31.2361 50.6169 30.8174 51.0108 30.3986 51.3785ZM33.6047 48.1878C32.2699 46.7435 30.9352 45.1416 29.6396 43.4215C30.8959 43.474 32.1914 43.5003 33.5 43.5003C34.8479 43.5003 36.1695 43.474 37.4781 43.4084C36.2742 45.0759 34.9787 46.6647 33.6047 48.1878ZM50.708 52.1269C50.5902 53.7288 49.8051 55.2257 48.5488 56.2367C46.4682 57.4447 42.032 55.8691 37.2426 51.7461C36.693 51.2734 36.1434 50.7614 35.5807 50.2361C37.5828 48.0171 39.4279 45.6668 41.1029 43.1983C44.0996 42.9488 47.0832 42.4892 50.0275 41.8196C50.1584 42.3579 50.2762 42.8963 50.3809 43.4215C51.0221 46.2576 51.1268 49.212 50.708 52.1269ZM53.0896 38.0118C52.7232 38.13 52.3568 38.2481 51.9773 38.3532C51.0613 35.4908 49.9359 32.694 48.6404 29.976C49.8967 27.2974 50.9566 24.54 51.8465 21.717C52.527 21.914 53.1813 22.124 53.8094 22.3341C59.9074 24.435 64.1865 27.56 64.1865 29.9497C64.1865 32.5233 59.6195 35.8453 53.0896 38.0118ZM33.5 36.0422C36.8107 36.0422 39.4934 33.3505 39.4934 30.0285C39.4934 26.7065 36.8107 24.0148 33.5 24.0148C30.1893 24.0148 27.5066 26.7065 27.5066 30.0285C27.5066 33.3505 30.1893 36.0422 33.5 36.0422Z" fill="#FF4848"/>
<path d="M6.784 85V76.278H9.36C10.0507 76.278 10.606 76.3807 11.026 76.586C11.4553 76.7913 11.768 77.0807 11.964 77.454C12.16 77.8273 12.258 78.266 12.258 78.77C12.258 79.0967 12.1833 79.4233 12.034 79.75C11.894 80.0767 11.6887 80.3613 11.418 80.604C11.1567 80.8467 10.844 81.0147 10.48 81.108L12.496 85H11.404L9.472 81.15H7.778V85H6.784ZM7.778 80.282H9.472C10.0973 80.282 10.55 80.1467 10.83 79.876C11.11 79.596 11.25 79.2273 11.25 78.77C11.25 78.4807 11.1893 78.2193 11.068 77.986C10.9467 77.7433 10.7553 77.552 10.494 77.412C10.2327 77.272 9.892 77.202 9.472 77.202H7.778V80.282ZM13.826 85V76.264H19.174V77.132H14.75V80.002H18.404V80.898H14.75V84.132H19.132V85H13.826ZM24.998 82.452H21.834L22.03 81.696H24.774L24.998 82.452ZM23.486 78.364L21.19 85H20.224L23.444 76.124H23.556L26.776 85H25.768L23.486 78.364ZM30.99 85.14C30.514 85.14 30.0707 85.056 29.66 84.888C29.2493 84.7107 28.8853 84.44 28.568 84.076C28.26 83.712 28.0173 83.25 27.84 82.69C27.6627 82.13 27.574 81.4627 27.574 80.688C27.574 80.0067 27.6393 79.414 27.77 78.91C27.9007 78.3967 28.078 77.9673 28.302 77.622C28.526 77.2767 28.7827 77.0013 29.072 76.796C29.3613 76.5907 29.6647 76.4413 29.982 76.348C30.2993 76.2547 30.6167 76.208 30.934 76.208C31.5687 76.208 32.11 76.3667 32.558 76.684C33.006 76.992 33.342 77.4073 33.566 77.93L32.726 78.322L32.6 78.378L32.558 78.28C32.586 78.2053 32.586 78.14 32.558 78.084C32.53 78.0187 32.4787 77.9207 32.404 77.79C32.1707 77.4727 31.928 77.2627 31.676 77.16C31.4333 77.048 31.1767 76.992 30.906 76.992C30.542 76.992 30.2107 77.076 29.912 77.244C29.6227 77.4027 29.3707 77.6407 29.156 77.958C28.9507 78.266 28.792 78.644 28.68 79.092C28.5773 79.54 28.526 80.0487 28.526 80.618C28.526 81.1687 28.5867 81.668 28.708 82.116C28.8387 82.564 29.0113 82.9513 29.226 83.278C29.45 83.6047 29.7067 83.8567 29.996 84.034C30.2947 84.2113 30.612 84.3 30.948 84.3C31.1813 84.3 31.4053 84.258 31.62 84.174C31.844 84.09 32.0493 83.9687 32.236 83.81C32.4227 83.642 32.5813 83.4507 32.712 83.236L33.44 83.712C33.16 84.1787 32.824 84.5333 32.432 84.776C32.04 85.0187 31.5593 85.14 30.99 85.14ZM36.912 85V77.146H34.434V76.264H40.482V77.146H37.906V85H36.912ZM44.332 85.154C44.108 85.154 43.9167 85.0747 43.758 84.916C43.5993 84.7573 43.52 84.5707 43.52 84.356C43.52 84.1413 43.5993 83.9547 43.758 83.796C43.9167 83.6373 44.108 83.558 44.332 83.558C44.5467 83.558 44.7333 83.6373 44.892 83.796C45.0507 83.9547 45.13 84.1413 45.13 84.356C45.13 84.5707 45.0507 84.7573 44.892 84.916C44.7333 85.0747 44.5467 85.154 44.332 85.154ZM50.744 85.154C50.3333 85.154 49.9553 85.0747 49.61 84.916C49.2647 84.748 48.9567 84.5053 48.686 84.188L49.246 83.488L49.344 83.376L49.414 83.432C49.4233 83.516 49.442 83.5907 49.47 83.656C49.5073 83.7213 49.5867 83.8053 49.708 83.908C49.8667 84.0293 50.0253 84.1227 50.184 84.188C50.352 84.2533 50.5387 84.286 50.744 84.286C51.0613 84.286 51.318 84.216 51.514 84.076C51.71 83.936 51.8547 83.7073 51.948 83.39C52.0413 83.0633 52.088 82.6293 52.088 82.088V77.104H50.408V76.278H54.398V77.104H53.054V82.074C53.0727 82.634 53.0213 83.11 52.9 83.502C52.7787 83.894 52.606 84.216 52.382 84.468C52.158 84.7107 51.906 84.888 51.626 85C51.346 85.1027 51.052 85.154 50.744 85.154ZM58.458 85.14C57.8887 85.14 57.3753 85.0467 56.918 84.86C56.47 84.6733 56.0733 84.398 55.728 84.034L56.232 83.152L56.288 83.026L56.386 83.082C56.4047 83.1473 56.428 83.222 56.456 83.306C56.484 83.3807 56.5493 83.474 56.652 83.586C56.8947 83.7913 57.1747 83.9547 57.492 84.076C57.8187 84.1973 58.1873 84.258 58.598 84.258C58.8593 84.258 59.0973 84.2207 59.312 84.146C59.536 84.062 59.7273 83.9547 59.886 83.824C60.054 83.684 60.18 83.5253 60.264 83.348C60.3573 83.1613 60.404 82.9653 60.404 82.76C60.404 82.6013 60.3853 82.4567 60.348 82.326C60.32 82.1953 60.2593 82.0787 60.166 81.976C60.082 81.864 59.9653 81.7567 59.816 81.654C59.6667 81.542 59.4753 81.4253 59.242 81.304C59.0087 81.1827 58.7287 81.052 58.402 80.912C57.7953 80.6787 57.3147 80.4267 56.96 80.156C56.6147 79.876 56.3673 79.582 56.218 79.274C56.078 78.966 56.008 78.6487 56.008 78.322C56.008 77.8927 56.1153 77.5193 56.33 77.202C56.5447 76.8753 56.848 76.6233 57.24 76.446C57.6413 76.2593 58.1173 76.166 58.668 76.166C58.9853 76.166 59.2887 76.2127 59.578 76.306C59.8767 76.39 60.152 76.5113 60.404 76.67C60.6653 76.8287 60.894 77.0247 61.09 77.258L60.544 77.986L60.46 78.098L60.376 78.042C60.3667 77.9673 60.348 77.8927 60.32 77.818C60.292 77.7433 60.2267 77.65 60.124 77.538C59.9 77.3233 59.662 77.1787 59.41 77.104C59.158 77.02 58.8593 76.978 58.514 76.978C58.2807 76.978 58.0707 77.0107 57.884 77.076C57.7067 77.1413 57.5527 77.2347 57.422 77.356C57.2913 77.4773 57.1887 77.6173 57.114 77.776C57.0487 77.9253 57.016 78.084 57.016 78.252C57.016 78.4107 57.0347 78.5553 57.072 78.686C57.1093 78.8167 57.1747 78.9427 57.268 79.064C57.3613 79.1853 57.4873 79.3067 57.646 79.428C57.814 79.5493 58.0193 79.6707 58.262 79.792C58.514 79.9133 58.8173 80.044 59.172 80.184C59.6013 80.3613 59.956 80.5387 60.236 80.716C60.5253 80.884 60.7493 81.066 60.908 81.262C61.076 81.4487 61.1927 81.654 61.258 81.878C61.3327 82.102 61.37 82.3493 61.37 82.62C61.37 83.0213 61.2673 83.418 61.062 83.81C60.866 84.1927 60.5533 84.51 60.124 84.762C59.6947 85.014 59.1393 85.14 58.458 85.14Z" fill="#1A1A1A"/>
</svg>
