<svg width="39" height="30" viewBox="0 0 39 30" fill="none" xmlns="http://www.w3.org/2000/svg">
<path d="M38.1851 5.31828C37.7365 3.57017 36.415 2.19342 34.737 1.72619C31.6956 0.877197 19.5 0.877197 19.5 0.877197C19.5 0.877197 7.30442 0.877197 4.26295 1.72619C2.58501 2.19349 1.26348 3.57017 0.814943 5.31828C0 8.48682 0 15.0977 0 15.0977C0 15.0977 0 21.7086 0.814943 24.8771C1.26348 26.6252 2.58501 27.9446 4.26295 28.4119C7.30442 29.2608 19.5 29.2608 19.5 29.2608C19.5 29.2608 31.6956 29.2608 34.737 28.4119C36.415 27.9446 37.7365 26.6252 38.1851 24.8771C39 21.7086 39 15.0977 39 15.0977C39 15.0977 39 8.48682 38.1851 5.31828ZM15.5113 21.0999V9.09552L25.7045 15.0979L15.5113 21.0999Z" fill="#FF4848"/>
</svg>
